<?xml version="1.0" encoding="UTF-8" standalone="no"?>
<!-- Created with Inkscape (http://www.inkscape.org/) -->

<svg
   width="221.46367mm"
   height="273.03934mm"
   viewBox="0 0 221.46367 273.03934"
   version="1.1"
   id="svg1"
   xml:space="preserve"
   inkscape:export-filename="bitmap.svg"
   inkscape:export-xdpi="96"
   inkscape:export-ydpi="96"
   xmlns:inkscape="http://www.inkscape.org/namespaces/inkscape"
   xmlns:sodipodi="http://sodipodi.sourceforge.net/DTD/sodipodi-0.dtd"
   xmlns="http://www.w3.org/2000/svg"
   xmlns:svg="http://www.w3.org/2000/svg"><sodipodi:namedview
     id="namedview1"
     pagecolor="#ffffff"
     bordercolor="#000000"
     borderopacity="0.25"
     inkscape:showpageshadow="2"
     inkscape:pageopacity="0.0"
     inkscape:pagecheckerboard="0"
     inkscape:deskcolor="#d1d1d1"
     inkscape:document-units="mm" /><defs
     id="defs1" /><g
     inkscape:label="Livello 1"
     inkscape:groupmode="layer"
     id="layer1"
     transform="translate(5.9978243,-11.445831)"><path
       style="display:inline;fill:#000000"
       d="m 100.63668,283.4242 c -4.908364,-1.82666 -5.744345,-2.15263 -9.789584,-3.81721 -0.945886,-0.38923 -2.136511,-0.89334 -2.645834,-1.12027 -0.509323,-0.22692 -1.402291,-0.62244 -1.984375,-0.87893 -4.078478,-1.7972 -12.47968,-5.92102 -15.08125,-7.4028 -1.018646,-0.58019 -2.328333,-1.29315 -2.910417,-1.58436 -0.582083,-0.2912 -1.534583,-0.82953 -2.116666,-1.19627 -0.582084,-0.36675 -1.236927,-0.74434 -1.455209,-0.83908 -0.218281,-0.0948 -1.089903,-0.62801 -1.936939,-1.18503 -0.847035,-0.55701 -1.595997,-1.01275 -1.664359,-1.01275 -0.06836,0 -0.446896,-0.2226 -0.841186,-0.49468 -0.39429,-0.27207 -2.443297,-1.63226 -4.553349,-3.02263 -3.323788,-2.19014 -7.940281,-5.53228 -12.552489,-9.08745 -1.674194,-1.2905 -6.708018,-5.6299 -9.913403,-8.54585 -4.812436,-4.37787 -12.927942,-13.57293 -17.111285,-19.38747 -1.323698,-1.83985 -4.343657,-6.29949 -4.343657,-6.41437 0,-0.0583 -0.451211,-0.79899 -1.002691,-1.64603 -0.55148,-0.84703 -1.1474431,-1.83772 -1.3243618,-2.20152 -0.1769186,-0.3638 -0.7956308,-1.49489 -1.3749159,-2.51354 -0.9965748,-1.75243 -3.5438857,-6.84998 -4.4292221,-8.86354 -0.223943,-0.50933 -0.6237579,-1.40229 -0.8884776,-1.98438 -0.2647197,-0.58208 -0.7896548,-1.89177 -1.1665225,-2.91041 -0.3768677,-1.01865 -0.79306399,-2.11257 -0.9248806,-2.43094 -0.68264142,-1.64874 -2.2745515,-6.86407 -3.1748723,-10.40136 -0.3148268,-1.23692 -0.7346029,-2.84427 -0.9328359,-3.57187 -0.198233,-0.72761 -0.4812439,-2.21589 -0.6289132,-3.30729 -0.1476693,-1.09141 -0.4416724,-2.75828 -0.6533402,-3.70417 -0.2116679,-0.94589 -0.465142,-2.64173 -0.563276,-3.76855 -0.098134,-1.12681 -0.2874039,-2.1161 -0.4205999,-2.19842 -0.3500621,-0.21635 -0.3234117,-155.612012 0.026725,-155.828408 0.1478946,-0.0914 0.2003991,-0.277024 0.1166768,-0.41249 -0.093856,-0.151861 41.9897502,-0.246301 109.7552992,-0.246301 h 109.90752 l 0.30477,0.668884 c 0.16762,0.367886 0.48438,0.737812 0.70392,0.822058 0.3546,0.13607 0.39917,8.954878 0.39917,78.980009 0,69.423868 -0.0471,78.898678 -0.39464,79.429128 -0.2213,0.33775 -0.51717,1.81535 -0.67361,3.36413 -0.15344,1.51901 -0.44022,3.35715 -0.63727,4.08475 -0.35641,1.31595 -0.94416,3.70506 -1.59473,6.48229 -0.18748,0.80037 -0.4638,1.8124 -0.61403,2.24896 -0.15023,0.43656 -0.7651,2.34156 -1.36638,4.23334 -0.60128,1.89177 -1.32599,4.00513 -1.61046,4.69635 -0.28447,0.69122 -0.7676,1.88185 -1.07363,2.64583 -2.06738,5.16109 -6.3917,13.81652 -8.55918,17.13177 -0.33299,0.50933 -1.05361,1.64042 -1.60139,2.51355 -0.54778,0.87312 -1.24395,1.94468 -1.54705,2.38125 -0.30309,0.43656 -1.03414,1.50812 -1.62454,2.38125 -7.58378,11.21532 -18.25103,22.15459 -30.95708,31.74648 -3.72344,2.81085 -3.1821,2.43014 -8.50255,5.9796 -4.95603,3.30634 -5.27316,3.50315 -9.67622,6.00502 -1.35297,0.76878 -2.63855,1.50762 -2.85683,1.64188 -0.99064,0.6093 -13.83649,6.9183 -15.61041,7.66677 -1.09141,0.4605 -2.34157,0.99813 -2.77813,1.19474 -0.43656,0.19661 -1.56766,0.67348 -2.51354,1.05971 -0.94589,0.38622 -1.95792,0.80973 -2.24896,0.94112 -0.29104,0.13139 -1.03518,0.42071 -1.65364,0.64293 -2.77672,0.99771 -3.42499,1.24524 -4.20718,1.60649 -0.45855,0.21178 -0.99433,0.38909 -1.19062,0.39403 -0.19629,0.005 -0.83314,0.23902 -1.41523,0.52019 -0.58208,0.28116 -1.23692,0.51929 -1.4552,0.52916 -0.21829,0.01 -0.87313,0.248 -1.45521,0.52917 -1.71867,0.83017 -3.74415,0.67346 -7.01146,-0.54247 z m 8.22114,-10.55796 c 1.37197,-0.44977 2.86967,-0.99367 3.32822,-1.20867 0.45856,-0.21499 0.96139,-0.3909 1.1174,-0.3909 0.15602,0 0.79287,-0.22546 1.41522,-0.50103 0.62236,-0.27556 1.72687,-0.73787 2.45448,-1.02735 2.60625,-1.0369 4.24612,-1.7068 5.02708,-2.05359 0.43656,-0.19386 1.68672,-0.72974 2.77813,-1.19083 1.77304,-0.74908 12.49674,-5.99635 13.49375,-6.6027 0.21828,-0.13275 1.70656,-0.97437 3.30729,-1.87026 3.16521,-1.77149 3.16916,-1.77395 8.20208,-5.09437 7.90064,-5.21236 13.54183,-9.633 20.03021,-15.69638 6.74735,-6.3054 14.72095,-15.62964 18.80799,-21.99387 2.11444,-3.29254 2.52875,-3.95353 2.9407,-4.6915 0.24369,-0.43656 0.72295,-1.27 1.06501,-1.85208 1.90456,-3.24094 3.80702,-6.95601 5.21642,-10.18646 0.73012,-1.67349 1.4964,-3.41789 1.70285,-3.87644 0.20645,-0.45856 0.3761,-0.93481 0.37699,-1.05834 9e-4,-0.12353 0.15363,-0.52225 0.33939,-0.88605 0.33264,-0.65142 2.44951,-7.08655 3.35089,-10.18646 0.44337,-1.52478 1.10235,-4.37139 1.99161,-8.60332 1.00821,-4.79798 1.01938,-5.58602 1.11546,-78.709182 l 0.0939,-71.437502 -0.56531,-0.46302 c -0.5362,-0.439172 -5.75316,-0.463021 -101.28338,-0.463021 -87.808638,0 -100.7886635,0.04944 -101.2688157,0.385755 L 3.3446011,23.594426 3.170464,55.686275 C 3.074689,73.336792 2.9824263,105.51844 2.9654367,127.20104 c -0.030496,38.91923 -0.02368,39.47321 0.5334384,43.3591 0.3103807,2.1649 0.7430478,4.53799 0.9614824,5.27354 0.2184345,0.73555 0.3971538,1.61592 0.3971538,1.95638 0,1.49394 3.5743085,13.24118 4.9066156,16.12597 0.2117781,0.45855 0.3850511,0.92176 0.3850511,1.02935 0,0.10759 0.225245,0.68491 0.500545,1.28293 1.786403,3.88054 2.74372,5.90112 2.959568,6.24669 0.136342,0.21828 0.391106,0.69453 0.566143,1.05833 0.320715,0.66659 3.670869,6.57994 4.257171,7.51432 7.776625,12.39358 18.600292,24.10373 31.634122,34.22504 3.529187,2.74056 8.760845,6.36283 14.057452,9.73303 2.781192,1.76966 3.997067,2.50261 4.151491,2.50261 0.09486,0 0.360436,0.16407 0.590175,0.36459 0.22974,0.20052 1.251146,0.81213 2.269792,1.35914 1.018646,0.54701 2.685521,1.45129 3.704167,2.00953 3.466485,1.89968 13.638685,6.85008 14.075727,6.85008 0.0846,0 0.643104,0.22385 1.241126,0.49744 0.997885,0.45654 1.79899,0.79058 5.188356,2.16345 0.654843,0.26525 2.024062,0.79279 3.042708,1.17232 1.018646,0.37953 2.268799,0.85158 2.778129,1.04902 2.88859,1.11972 3.99525,1.10423 7.69197,-0.10766 z M 92.963762,238.92653 c -0.363802,-0.19203 -0.699504,-0.61406 -0.746006,-0.93784 -0.07959,-0.55418 0.01136,-0.58869 1.551695,-0.58869 3.673231,0 6.309509,-2.96302 4.365713,-4.90682 -0.428936,-0.42893 -0.947938,-0.64943 -1.528629,-0.64943 -1.064994,0 -2.055273,-0.64015 -2.055273,-1.32861 0,-0.58439 0.74141,-1.05264 1.666717,-1.05264 0.993349,0 2.03745,-0.96114 2.03745,-1.87557 0,-0.63083 -0.177461,-0.86345 -0.93393,-1.22418 -0.792457,-0.3779 -1.11128,-0.39793 -2.104689,-0.13223 -1.883029,0.50363 -3.305482,-0.0194 -2.903274,-1.0675 0.255807,-0.6666 2.968175,-1.52135 4.827692,-1.52135 2.194086,0 3.393072,0.5718 4.218702,2.01192 0.77115,1.34509 0.7574,2.54652 -0.0426,3.72386 -0.70504,1.03756 -0.62521,1.64827 0.38299,2.93 0.35219,0.44773 0.52388,1.07079 0.52388,1.90111 0,1.67125 -1.11624,3.19473 -2.989995,4.08086 -1.71725,0.8121 -5.257441,1.17181 -6.270423,0.63711 z m 10.869938,-0.13001 c -1.04958,-0.85411 -0.58876,-1.39652 1.18646,-1.39652 0.81932,0 1.89182,-0.19083 2.38334,-0.42407 1.1443,-0.54301 2.75818,-2.3232 2.75818,-3.04241 0,-0.93572 -1.40186,-1.99697 -2.9005,-2.19577 -1.25728,-0.16678 -1.33283,-0.22076 -1.33283,-0.95214 0,-0.82775 0.59232,-1.32311 1.58213,-1.32311 0.7702,0 1.91296,-1.19857 1.80897,-1.89732 -0.0461,-0.30972 -0.40396,-0.80125 -0.79524,-1.09228 -0.65722,-0.48883 -0.8309,-0.5038 -2.27919,-0.19645 -1.18693,0.25188 -1.70502,0.25923 -2.13284,0.0303 -1.74889,-0.93597 0.8262,-2.65786 3.98175,-2.66247 2.09578,-0.003 2.72326,0.20257 3.86082,1.26521 0.77626,0.72513 0.85276,0.93817 0.85276,2.37455 0,1.17733 -0.13435,1.74876 -0.52916,2.25069 -0.69643,0.88536 -0.66678,1.16572 0.26939,2.5473 0.84809,1.25159 0.9629,2.07381 0.48771,3.49258 -0.69164,2.06497 -2.90869,3.31171 -6.35604,3.57426 -1.9504,0.14854 -2.28043,0.10768 -2.84571,-0.35232 z m 15.04436,-3.72263 c -0.66302,-0.24861 -1.44236,-0.63061 -1.73188,-0.84889 -1.52655,-1.15094 -2.18637,-3.79619 -1.72964,-6.93418 0.43954,-3.01984 2.40645,-5.33446 6.11181,-7.19225 1.16601,-0.58461 1.56168,-0.67113 2.05052,-0.4484 0.33315,0.15179 0.60573,0.50802 0.60573,0.79162 0,0.52795 -1.14678,1.61238 -1.70509,1.61238 -0.17094,0 -0.95856,0.58497 -1.75025,1.29994 -1.22938,1.11023 -1.3968,1.37087 -1.14719,1.78594 0.21108,0.351 0.73549,0.52916 1.88793,0.64139 1.67129,0.16277 2.50936,0.63092 3.5902,2.00552 0.477,0.60665 0.57774,1.07279 0.56905,2.63326 -0.0141,2.52925 -0.79839,3.74862 -2.93775,4.5673 -1.74725,0.66863 -2.23135,0.6796 -3.81344,0.0864 z m 3.20478,-2.75994 c 1.05209,-1.15188 1.05401,-2.3524 0.005,-3.40097 -0.87053,-0.87053 -1.75839,-0.98278 -2.94007,-0.37171 -1.33017,0.68786 -1.37224,2.29875 -0.0996,3.81126 0.93812,1.11489 1.99291,1.10148 3.03418,-0.0386 z m -37.488834,1.99657 c -0.153897,-0.61317 -0.01253,-0.84769 1.053293,-1.74732 l 1.231047,-1.0391 v -1.77163 c 0,-0.9904 -0.135232,-1.90687 -0.30667,-2.07831 -0.192189,-0.19218 -0.735424,-0.2479 -1.455208,-0.14924 -1.136897,0.15583 -1.148539,0.1493 -1.148539,-0.64414 0,-0.69277 0.242411,-0.96708 1.785938,-2.02095 1.921794,-1.31214 3.548773,-1.64795 3.874296,-0.79965 0.08833,0.23019 0.160599,2.13162 0.160599,4.22541 v 3.8069 l 0.79375,0.58685 c 0.539401,0.39879 0.79375,0.81465 0.79375,1.29776 0,0.88399 -0.624979,1.04165 -4.129073,1.04165 -2.463391,0 -2.476293,-0.003 -2.653183,-0.70823 z m 6.22347,-47.57537 c -0.901967,-0.49382 -1.401507,-1.72434 -1.179791,-2.90619 0.212973,-1.13524 1.651399,-2.58363 2.346845,-2.3631 0.500557,0.15874 1.772982,-0.52167 1.772982,-0.94807 0,-0.54141 -1.080465,-0.85199 -1.852083,-0.53237 -0.553747,0.22937 -0.888155,0.23267 -1.298912,0.0128 -1.798028,-0.96227 1.622499,-2.52943 3.9795,-1.82325 1.268377,0.38001 1.549145,1.1957 1.55127,4.50677 8.12e-4,1.26472 0.120538,2.37308 0.266059,2.46301 0.471234,0.29124 0.280458,1.09349 -0.330729,1.39077 -1.026195,0.49915 -4.469156,0.62991 -5.255141,0.19959 z m 2.663382,-2.16427 c 0.305526,-0.38842 0.513201,-0.8349 0.4615,-0.99219 -0.182685,-0.55578 -1.136345,-0.43381 -1.754722,0.22443 -0.5183,0.5517 -0.56737,0.73349 -0.288644,1.06933 0.487705,0.58765 0.952034,0.49913 1.581866,-0.30157 z m 35.663102,2.38551 c -0.62271,-0.17587 -1.8709,-2.84193 -1.65257,-3.52981 0.237,-0.74673 1.77336,-1.85366 2.57276,-1.85366 0.88515,0 1.46462,-0.68232 1.08618,-1.27895 -0.19825,-0.31257 -0.65376,-0.44084 -1.56542,-0.44084 -0.93431,0 -1.30564,-0.1085 -1.35835,-0.39688 -0.15643,-0.85573 0.40021,-1.17018 2.25714,-1.2751 1.7173,-0.097 1.88329,-0.0561 2.64537,0.65193 0.80954,0.75216 0.81331,0.76877 0.86433,3.79817 0.0711,4.2244 0.19079,3.87936 -1.40828,4.06109 -0.76399,0.0868 -1.74625,0.21128 -2.18282,0.27656 -0.43656,0.0653 -1.00281,0.0597 -1.25834,-0.0125 z m 2.04318,-2.19862 c 0.50626,-0.55942 0.38652,-1.33277 -0.20636,-1.33277 -0.54667,0 -1.32611,0.9813 -1.14803,1.44535 0.21409,0.55793 0.79098,0.50997 1.35439,-0.11258 z M 28.632702,186.3322 c -1.342575,-0.70937 -1.557754,-1.53168 -1.737977,-6.64174 l -0.155039,-4.396 0.899017,-0.13638 c 1.861808,-0.28245 2.267366,0.64731 2.010665,4.60953 -0.22202,3.42691 0.46481,5.08265 2.043799,4.927 1.250692,-0.12329 1.466407,-0.87408 1.470861,-5.1193 0.0027,-2.53382 0.104989,-3.81848 0.3214,-4.03489 0.493799,-0.4938 1.742785,-0.39628 1.863705,0.14552 0.05684,0.25466 0.05657,2.30849 -6e-4,4.56406 -0.07587,2.99333 -0.213662,4.31785 -0.510163,4.90371 -0.80407,1.58879 -4.206288,2.23489 -6.205668,1.17849 z m 31.258143,0.0806 c -1.412483,-0.86132 -1.688531,-1.56185 -1.639443,-4.16043 0.04493,-2.37844 0.05337,-2.40677 0.97079,-3.25919 0.829694,-0.77091 1.089043,-0.8599 2.506144,-0.8599 1.380049,0 1.668605,0.0924 2.27342,0.72761 0.880276,0.92457 1.180756,1.68644 1.180756,2.99378 v 1.04111 h -1.604894 c -1.901911,0 -2.628439,0.32272 -2.628439,1.16754 0,1.08206 0.935823,1.51057 2.453206,1.12331 1.010778,-0.25796 1.314513,0.50774 0.47202,1.18995 -0.746643,0.60459 -3.01762,0.62524 -3.98356,0.0362 z M 62.381,180.96682 c 0.413354,-0.6553 -0.434966,-1.47934 -1.021667,-0.99242 -0.492764,0.40895 -0.523461,0.85021 -0.08935,1.28432 0.389227,0.38923 0.739402,0.29723 1.111014,-0.2919 z m 10.408283,5.48185 c -0.757817,-0.41113 -0.834627,-0.58483 -0.567005,-1.28224 0.183108,-0.47717 1.179738,-0.55984 1.606335,-0.13324 0.494903,0.4949 1.794835,0.18246 1.885488,-0.45318 0.08969,-0.62887 -1.038408,-1.68418 -1.800339,-1.68418 -0.760445,0 -1.852083,-1.03523 -1.852083,-1.75639 0,-0.708 -0.427011,-1.68319 -0.737031,-1.68319 -0.104085,0 -0.695208,0.4625 -1.313607,1.02777 l -1.124362,1.02777 v 2.24712 c 0,2.41802 -0.244912,2.93507 -1.264019,2.66857 -0.738736,-0.19318 -0.86552,-0.97352 -0.784077,-4.82586 0.05271,-2.49298 0.140786,-3.0626 0.509517,-3.29508 0.323617,-0.20403 0.623372,-0.18603 1.093721,0.0657 0.532696,0.28509 0.817125,0.28557 1.599321,0.003 0.88211,-0.31898 0.999959,-0.29841 1.618258,0.28245 l 0.666862,0.62649 0.625477,-0.58761 c 0.549229,-0.51597 0.863358,-0.57804 2.576882,-0.50914 1.664865,0.0669 1.965352,0.15151 2.046389,0.57593 0.118784,0.6221 -0.376051,0.94845 -1.446038,0.95369 -1.039186,0.005 -1.635007,0.61857 -1.158452,1.19278 0.18029,0.21724 0.788283,0.51897 1.351094,0.67052 1.570193,0.42281 2.398224,1.2699 2.432774,2.48877 0.02492,0.87917 -0.117303,1.15239 -0.994647,1.91079 -0.923649,0.79843 -1.181074,0.88391 -2.63329,0.87435 -0.905531,-0.006 -1.927822,-0.18325 -2.337168,-0.40532 z m 12.718492,-0.0986 c -0.541814,-0.43873 -0.628698,-0.79768 -0.769953,-3.18094 -0.115546,-1.94949 -0.275624,-2.8028 -0.58357,-3.11074 -0.34995,-0.34995 -0.496258,-0.36467 -0.834502,-0.0839 -0.32216,0.26737 -0.410154,0.92815 -0.410154,3.08002 0,2.61565 -0.02934,2.75886 -0.648449,3.16451 -1.330292,0.87164 -1.581279,0.51755 -1.794899,-2.53224 -0.106915,-1.52638 -0.126269,-3.41507 -0.04301,-4.19709 l 0.15138,-1.42185 1.205969,0.1653 c 1.157186,0.15861 1.258242,0.1164 2.498206,-1.04344 1.456253,-1.36216 2.130897,-1.43262 2.332932,-0.24367 0.104332,0.61398 0.326361,0.84705 0.994226,1.04367 1.186948,0.34944 1.083438,1.17622 -0.228841,1.82786 -0.527502,0.26194 -0.656153,0.57278 -0.784002,1.8943 -0.182013,1.88139 0.0318,2.58709 1.080697,3.56691 0.882909,0.82476 0.726198,1.13415 -0.712357,1.40638 -0.606794,0.11482 -1.014035,0.021 -1.453672,-0.33503 z m 17.295925,-0.19376 c -1.0726,-0.91484 -1.48295,-2.47692 -1.22895,-4.67812 0.23618,-2.04668 1.08671,-3.05056 2.7661,-3.26479 1.80432,-0.23017 2.11666,-0.47441 2.11666,-1.6552 0,-0.56506 0.0723,-1.21571 0.1606,-1.4459 0.22496,-0.58621 1.35197,-0.52373 1.68218,0.0933 0.31479,0.5882 0.38503,11.03128 0.0754,11.219 -0.10914,0.0662 -1.21047,0.20095 -2.44739,0.29948 -2.2011,0.17535 -2.2676,0.16327 -3.12465,-0.56773 z m 3.32075,-2.00367 c 0.50726,-0.54613 0.73867,-1.49996 0.63755,-2.62781 -0.022,-0.24475 -0.41504,-0.71213 -0.87353,-1.0386 l -0.83364,-0.5936 -0.62157,0.72263 c -1.09635,1.27458 -0.63284,4.1327 0.67022,4.1327 0.25742,0 0.71686,-0.26789 1.02097,-0.59532 z m 14.74117,2.03428 c -0.62105,-0.36263 -1.33927,-1.10087 -1.71173,-1.75947 -0.55125,-0.97472 -0.64017,-1.47114 -0.63065,-3.5209 0.01,-2.09445 0.0971,-2.53294 0.71446,-3.58644 0.95734,-1.63357 2.30428,-2.36174 4.36871,-2.36174 1.69572,0 2.53857,0.45869 2.36836,1.28889 -0.0712,0.34724 -0.37249,0.41603 -1.55173,0.35429 -1.77384,-0.0929 -2.72383,0.51464 -3.13827,2.00688 -0.3446,1.24077 -0.34956,3.34758 -0.0108,4.56721 0.43216,1.55566 2.50506,2.66575 3.36745,1.80336 0.44665,-0.44665 1.65979,-0.0539 1.65979,0.53732 0,1.402 -3.45334,1.82805 -5.43564,0.6706 z m 30.03462,0.22798 c -1.63197,-1.12192 -2.24984,-3.12014 -1.70169,-5.5034 0.48505,-2.10892 1.23732,-2.77944 3.11278,-2.77451 0.75587,0.002 1.61472,0.0682 1.90856,0.14718 0.88572,0.23802 1.75301,1.77986 1.80262,3.20463 l 0.0444,1.27478 -1.71979,0.13229 c -2.07038,0.15926 -2.38125,0.33197 -2.38125,1.32292 0,0.9709 0.30984,1.15002 1.8924,1.09401 1.11784,-0.0396 1.2826,0.022 1.2826,0.47932 0,0.2886 -0.2303,0.64797 -0.51178,0.79861 -0.80946,0.43321 -2.99265,0.33026 -3.72883,-0.17583 z m 2.34983,-5.45678 c 0.21227,-0.25577 0.20674,-0.4342 -0.0205,-0.66146 -0.67141,-0.67141 -1.58605,-0.0924 -0.9895,0.62643 0.39595,0.47709 0.63623,0.48542 1.01002,0.035 z m 24.69945,5.33953 c -1.7915,-1.14713 -2.43879,-3.96716 -1.3848,-6.03314 0.82686,-1.6208 1.66814,-2.13114 3.5131,-2.13114 1.48539,0 1.63695,0.0597 2.47498,0.97461 0.49099,0.53603 0.96782,1.37498 1.05962,1.86434 0.27,1.43923 -0.017,3.61645 -0.57584,4.36769 -1.12336,1.51022 -3.5196,1.96131 -5.08706,0.95764 z m 2.9732,-1.87315 c 0.45667,-0.65199 0.54968,-2.71922 0.16756,-3.72428 -0.36342,-0.95587 -0.95848,-1.04626 -1.86519,-0.28331 -0.70732,0.59517 -0.80091,0.83898 -0.80091,2.08641 0,1.21079 0.0995,1.49078 0.69714,1.96085 0.89015,0.70019 1.28934,0.6914 1.8014,-0.0397 z M 38.077723,186.012 c -0.537452,-0.76732 -0.604576,-7.12474 -0.07982,-7.56025 0.209651,-0.17399 1.329264,-0.22063 3.037292,-0.12651 3.431273,0.18907 3.450892,0.21253 3.511451,4.19838 0.05716,3.76175 0.100857,3.52139 -0.695272,3.82407 -1.158404,0.44043 -1.423025,-0.0385 -1.423025,-2.57557 0,-2.50762 -0.266784,-3.2575 -1.158927,-3.2575 -1.123861,0 -1.486906,0.75887 -1.486906,3.10805 0,1.17719 -0.07227,2.32867 -0.160599,2.55886 -0.232246,0.60522 -1.065618,0.51373 -1.54419,-0.16953 z m 9.046976,0.30226 c -0.401273,-0.23372 -0.462539,-0.70016 -0.459408,-3.49768 0.002,-1.7754 0.07437,-3.49195 0.160859,-3.81455 0.205732,-0.76741 1.09437,-1.04612 1.629432,-0.51106 0.564484,0.56448 0.485877,6.6127 -0.09766,7.51376 -0.429864,0.66377 -0.566266,0.698 -1.233228,0.30953 z m 5.478078,-0.36365 c -0.357187,-0.35719 -0.653472,-0.8632 -0.658409,-1.12448 -0.0049,-0.26128 -0.239023,-0.9513 -0.520189,-1.53338 -0.281167,-0.58208 -0.515252,-1.32731 -0.520189,-1.65606 -0.0049,-0.32874 -0.366166,-0.97148 -0.802728,-1.4283 -0.904739,-0.94672 -0.883688,-0.88342 -0.519858,-1.56324 0.352411,-0.65849 1.613153,-0.67488 2.198045,-0.0286 0.240507,0.26576 0.543184,1.05004 0.672616,1.74286 0.346759,1.85611 0.706386,2.06642 1.639708,0.95894 0.424594,-0.50383 0.771989,-1.06024 0.771989,-1.23647 0,-0.17624 0.30824,-0.68675 0.684978,-1.13448 1.051054,-1.2491 2.475065,-0.97618 1.579308,0.30269 -0.226711,0.32368 -0.412203,0.89271 -0.412203,1.26451 0,0.37181 -0.162757,0.91086 -0.361683,1.1979 -0.198926,0.28704 -0.56302,1.21882 -0.809099,2.07063 -0.425794,1.47388 -1.381345,2.81689 -2.004218,2.81689 -0.15875,0 -0.58088,-0.29224 -0.938068,-0.64943 z m 58.626543,0.13766 c -0.30143,-0.56323 -0.33019,-6.10765 -0.0371,-7.16115 0.1432,-0.51481 0.35732,-0.66145 0.96581,-0.66145 h 0.78182 l 0.0736,3.64142 c 0.0447,2.21257 -0.0368,3.84772 -0.20775,4.16719 -0.35881,0.67045 -1.22095,0.6781 -1.57637,0.014 z m 25.40586,0.0109 c -0.1506,-0.2814 -0.24162,-1.9667 -0.20775,-3.84648 0.0467,-2.59052 0.14697,-3.39913 0.44434,-3.58263 0.70435,-0.43464 4.18859,-0.62477 5.03376,-0.27469 0.58962,0.24423 0.99189,0.25197 1.62498,0.0313 0.46276,-0.16132 1.30594,-0.29331 1.87374,-0.29331 0.92792,0 1.07113,0.0928 1.41572,0.91755 0.57098,1.36653 0.54339,7.16652 -0.0351,7.38852 -0.6268,0.24053 -0.82639,0.20081 -1.28238,-0.25517 -0.3184,-0.31841 -0.41577,-0.9924 -0.41577,-2.87802 0,-1.90614 -0.0931,-2.53948 -0.41203,-2.80421 -0.34639,-0.28747 -0.51745,-0.23654 -1.07365,0.31966 -0.58898,0.58899 -0.67001,0.91478 -0.73808,2.9678 -0.0877,2.64511 -0.33632,3.10095 -1.33453,2.4469 -0.64376,-0.42181 -0.67504,-0.55661 -0.67504,-2.90874 0,-2.11975 -0.0734,-2.53289 -0.52239,-2.93919 -0.48918,-0.4427 -0.56487,-0.44492 -1.19063,-0.0349 -0.63305,0.41479 -0.66823,0.56383 -0.66823,2.83039 0,1.3159 -0.12326,2.62284 -0.2739,2.90432 -0.34996,0.65391 -1.21567,0.65997 -1.56302,0.0109 z m 21.3121,0.0823 c -0.0883,-0.23019 -0.1606,-2.06763 -0.1606,-4.08322 0,-3.50101 0.025,-3.67264 0.56069,-3.84265 0.30839,-0.0979 0.84315,-0.0268 1.18837,0.15796 0.48728,0.26079 0.7795,0.26674 1.30651,0.0266 0.48016,-0.21878 0.82929,-0.22878 1.19288,-0.0342 0.65995,0.35319 0.66057,0.96808 0.001,1.17736 -0.28208,0.0895 -0.87739,0.57795 -1.32292,1.08537 -0.75734,0.86256 -0.81004,1.05848 -0.81004,3.01115 0,1.54592 -0.10803,2.19659 -0.41578,2.50434 -0.53517,0.53517 -1.33442,0.53375 -1.54029,-0.003 z m 5.93413,-0.0933 c -0.3508,-0.65548 -0.35801,-6.37631 -0.009,-7.29378 0.21121,-0.55554 0.41172,-0.67932 0.99218,-0.61253 l 0.72748,0.0837 0.0738,3.83441 c 0.0649,3.3741 0.0192,3.87435 -0.3813,4.16718 -0.64306,0.47022 -1.08576,0.41374 -1.40298,-0.17899 z m 4.37521,0.096 c -0.33787,-0.33787 -0.41577,-1.10101 -0.41577,-4.07274 0,-3.99043 0.11491,-4.27611 1.47141,-3.65805 0.51018,0.23245 0.87925,0.23075 1.53701,-0.007 1.19332,-0.43151 2.68195,-0.39213 3.0749,0.0814 0.33657,0.40554 0.50195,7.39606 0.18253,7.71548 -0.0857,0.0857 -0.45899,0.0797 -0.82957,-0.0133 -0.65987,-0.16562 -0.67378,-0.21852 -0.67378,-2.56271 0,-1.31648 -0.12325,-2.6239 -0.2739,-2.90538 -0.38393,-0.71738 -1.17687,-0.63678 -1.82357,0.18537 -0.44809,0.56965 -0.54837,1.07373 -0.54837,2.75649 0,1.13264 -0.0723,2.24767 -0.1606,2.47786 -0.20587,0.53649 -1.00511,0.53791 -1.54029,0.003 z m -76.113626,-9.97966 c -1.803225,-1.2152 -0.575196,-2.40285 1.292674,-1.25017 1.012193,0.62463 1.347629,1.28216 0.82342,1.61409 -0.596573,0.37774 -1.159086,0.281 -2.116094,-0.36392 z m -45.150586,0.17093 c -0.181901,-0.0761 -0.33073,-0.41317 -0.33073,-0.74907 0,-0.43969 0.195963,-0.65991 0.699729,-0.78635 0.84863,-0.21299 1.227056,0.11048 1.10861,0.94763 -0.08773,0.62006 -0.760599,0.88772 -1.477609,0.58779 z m 33.535938,-0.60559 c 0,-0.54238 0.158555,-0.82624 0.526799,-0.94312 0.745739,-0.23668 1.060701,0.0427 1.060701,0.94091 0,0.6882 -0.09173,0.77813 -0.79375,0.77813 -0.701503,0 -0.79375,-0.0902 -0.79375,-0.77592 z m 30.868054,0.59953 c -0.097,-0.097 -0.17639,-0.4542 -0.17639,-0.79375 0,-0.50956 0.13859,-0.61736 0.79375,-0.61736 0.70556,0 0.79375,0.0882 0.79375,0.79375 0,0.65516 -0.10779,0.79375 -0.61736,0.79375 -0.33955,0 -0.69673,-0.0794 -0.79375,-0.17639 z m 52.53875,-0.13097 c -0.79333,-0.79333 0.0127,-1.80365 1.10461,-1.38463 0.6464,0.24805 0.45377,1.53588 -0.24471,1.63599 -0.29274,0.0419 -0.6797,-0.0712 -0.8599,-0.25136 z m -51.12764,-13.18639 c -0.3638,-0.11651 -1.07817,-0.2237 -1.5875,-0.23821 -0.51088,-0.0146 -1.9077,-0.5172 -3.1157,-1.1212 -1.75302,-0.87651 -2.58413,-1.51415 -4.16783,-3.19763 -1.08799,-1.15655 -2.05359,-2.42005 -2.14577,-2.80778 -0.0922,-0.38773 -0.32915,-1.00262 -0.5266,-1.36643 -1.21894,-2.24595 -1.911752,-11.9354 -1.03697,-14.50276 0.22525,-0.66106 0.40954,-1.52184 0.40954,-1.91285 0,-0.39102 0.23812,-1.01367 0.52917,-1.38367 0.29104,-0.37 0.5297,-0.77301 0.53035,-0.89557 0.003,-0.54669 3.03654,-3.55068 4.29555,-4.25359 3.63591,-2.02994 10.14062,-2.01473 13.38174,0.0313 2.49533,1.57524 3.82648,4.60877 2.28034,5.19661 -1.3057,0.49643 -2.48171,0.31335 -3.31042,-0.51536 -0.42537,-0.42537 -0.7734,-0.9378 -0.7734,-1.13873 0,-0.3851 -1.27009,-1.67635 -2.37397,-2.41352 -0.92179,-0.61556 -3.77592,-0.57617 -5.2029,0.0718 -1.46833,0.66675 -3.18581,2.25679 -3.86081,3.57434 -0.85768,1.67414 -1.2617,4.43355 -1.26164,8.617 4e-5,3.69236 0.50229,7.916 1.01829,8.56344 0.13155,0.16506 0.33042,0.59776 0.44193,0.96156 0.41305,1.34759 2.58742,3.91052 4.22764,4.98312 2.39851,1.56846 5.82642,2.01903 9.39271,1.23459 2.28248,-0.50205 2.38191,-0.49375 2.3772,0.19844 -0.009,1.30823 -0.73075,1.6671 -4.38514,2.18009 -3.09104,0.4339 -4.11821,0.4609 -5.13581,0.13501 z M 36.052669,162.7841 c -0.668965,-0.11315 -1.585787,-0.39681 -2.037381,-0.63034 -0.451595,-0.23352 -0.981603,-0.42459 -1.177796,-0.42459 -0.540872,0 -2.355912,-1.85347 -3.384377,-3.45603 l -0.915395,-1.42638 -0.132292,-10.9864 c -0.108966,-9.04927 -0.202269,-11.12452 -0.529166,-11.76976 -0.294485,-0.58126 -0.823504,-0.95039 -2.050521,-1.43078 -0.909506,-0.35608 -1.653646,-0.74212 -1.653646,-0.85785 0,-0.57038 7.445764,-1.62662 7.945282,-1.1271 0.130678,0.13067 0.288139,5.6533 0.349914,12.27251 0.108343,11.60908 0.132741,12.0864 0.689538,13.49012 0.63958,1.61242 1.717127,2.8833 3.318391,3.91378 0.854826,0.55011 1.472874,0.7033 3.214136,0.79666 1.915476,0.1027 2.327774,0.0368 3.69845,-0.59066 1.521011,-0.69635 2.552347,-1.68488 3.728636,-3.5739 0.583857,-0.93762 0.5871,-1.0091 0.595312,-13.12086 0.0072,-10.58491 0.06214,-12.25504 0.420136,-12.76615 0.453156,-0.64697 1.15972,-0.76269 1.651872,-0.27054 0.238157,0.23816 0.3175,3.50267 0.3175,13.06324 0,12.44326 -0.01343,12.77637 -0.565943,14.03615 -1.273083,2.90275 -3.305501,4.39419 -6.64661,4.87743 -1.94077,0.28071 -5.117874,0.27209 -6.83604,-0.0186 z m 22.411275,-0.6797 c -0.08833,-0.23018 -0.160599,-6.79433 -0.160599,-14.58699 v -14.16847 l -0.946232,-0.89241 c -0.545057,-0.51406 -1.44699,-1.01851 -2.127348,-1.18982 -0.656587,-0.16533 -1.136727,-0.42914 -1.081162,-0.59404 0.06812,-0.20215 1.413244,-0.29663 4.223257,-0.29663 4.033548,0 4.138606,0.0144 4.826423,0.66107 0.386718,0.36359 1.854575,2.66396 3.261905,5.11193 1.40733,2.44797 2.829194,4.88893 3.159698,5.42435 0.330504,0.53541 0.681922,1.15208 0.78093,1.37036 0.09901,0.21828 0.44468,0.78719 0.768161,1.26424 0.323481,0.47705 0.847512,1.37002 1.164515,1.98438 0.317003,0.61435 0.832012,1.55478 1.144465,2.08984 1.987507,3.40348 3.277883,5.70449 3.426841,6.11077 0.232351,0.63373 0.897484,0.85298 1.377959,0.45422 0.337178,-0.27983 0.393505,-1.96354 0.393505,-11.76255 0,-11.1116 0.01506,-11.44959 0.530789,-11.91633 0.580168,-0.52504 0.585077,-0.52353 1.020872,0.31481 0.320162,0.61589 0.453441,29.804 0.139824,30.62127 -0.364337,0.94945 -3.768745,0.21864 -4.196902,-0.90093 -0.08421,-0.22019 -0.443055,-0.87659 -0.79744,-1.45868 -0.354386,-0.58208 -0.887312,-1.50482 -1.184282,-2.05052 -0.296969,-0.5457 -0.782919,-1.43867 -1.079889,-1.98437 -0.296969,-0.54571 -0.821588,-1.46844 -1.165819,-2.05052 -0.344231,-0.58209 -0.796181,-1.35599 -1.004333,-1.7198 -0.208152,-0.3638 -0.656138,-1.1377 -0.995523,-1.71979 -0.339386,-0.58208 -0.838864,-1.47505 -1.109951,-1.98437 -0.271087,-0.50933 -0.724294,-1.28323 -1.007126,-1.7198 -0.282832,-0.43656 -0.725539,-1.1749 -0.983793,-1.64077 -2.175254,-3.92392 -4.925933,-8.54568 -5.086029,-8.54568 -0.107965,0 -0.393347,0.21773 -0.634183,0.48385 -0.393947,0.43531 -0.437882,1.69165 -0.437882,12.52159 v 12.03773 l -0.612365,0.57529 c -0.721551,0.67786 -1.383562,0.74239 -1.608286,0.15677 z m 31.113152,0.10102 c -0.238871,-0.23887 -0.3175,-3.75308 -0.3175,-14.19012 v -13.87261 l -0.928003,-0.87522 c -0.644237,-0.60759 -1.291475,-0.92972 -2.116667,-1.05347 -2.240551,-0.33599 -1.251039,-0.74099 3.492511,-1.42946 2.745904,-0.39854 2.928492,-0.37224 3.37213,0.48566 0.334535,0.64692 0.395859,2.97269 0.406455,15.41528 0.01433,16.82704 0.152056,15.83744 -2.204137,15.83744 -0.763009,0 -1.530164,-0.14288 -1.704789,-0.3175 z m 34.482724,0.0651 c -0.20477,-0.33132 0.10979,-1.59479 0.56113,-2.25385 0.19657,-0.28704 0.3574,-0.68577 0.3574,-0.88606 0,-0.20029 0.1766,-0.73934 0.39245,-1.1979 0.21585,-0.45855 0.56313,-1.36951 0.77173,-2.02436 0.2086,-0.65484 0.6928,-2.02406 1.076,-3.0427 0.3832,-1.01865 0.80803,-2.20928 0.94408,-2.64584 0.13605,-0.43656 0.36195,-1.03187 0.502,-1.32291 0.4081,-0.84807 1.6054,-3.99093 1.6054,-4.21411 0,-0.11211 0.17416,-0.57902 0.38702,-1.03758 0.56105,-1.20863 2.48558,-6.41716 2.9797,-8.06421 0.40491,-1.34968 0.39958,-1.45763 -0.12516,-2.53772 -0.36232,-0.74575 -0.8293,-1.24456 -1.37789,-1.47179 -0.52399,-0.21705 -0.79974,-0.50068 -0.74821,-0.76958 0.0688,-0.35897 0.59297,-0.43754 3.33793,-0.50029 l 3.25632,-0.0744 0.70921,0.76005 c 0.39006,0.41802 0.92958,1.40402 1.19891,2.1911 0.79113,2.31191 1.5252,4.28443 1.91104,5.13522 0.19799,0.43656 0.53001,1.27 0.73783,1.85208 0.20782,0.58209 0.63515,1.71318 0.94963,2.51355 1.27202,3.23738 1.9097,4.93687 2.15423,5.74128 0.14153,0.46556 0.43126,1.17994 0.64384,1.5875 0.21258,0.40755 0.38724,0.92288 0.38814,1.14516 9e-4,0.22228 0.16328,0.639 0.36086,0.92604 0.19757,0.28704 0.50826,0.97989 0.69042,1.53966 0.18215,0.55977 0.49602,1.33367 0.69747,1.71979 0.20146,0.38611 0.36702,0.85128 0.36792,1.03371 8.9e-4,0.18243 0.23975,0.77598 0.53079,1.319 0.29104,0.54302 0.52917,1.13424 0.52917,1.31381 0,0.17958 0.24628,0.799 0.54729,1.37651 0.43451,0.83361 0.48712,1.16245 0.25528,1.59564 -0.24335,0.4547 -0.54739,0.54565 -1.82409,0.54565 -1.25644,0 -1.62678,-0.1071 -2.05851,-0.59532 -0.79565,-0.89973 -1.23407,-1.72469 -2.07402,-3.9026 -0.42092,-1.09141 -0.92174,-2.17234 -1.11292,-2.40208 -0.19119,-0.22974 -0.34761,-0.62261 -0.34761,-0.87304 0,-0.61929 -0.62484,-1.78167 -1.2731,-2.36833 -0.48028,-0.43465 -1.0435,-0.47989 -5.64436,-0.45343 l -5.11085,0.0294 -0.73272,0.70199 c -0.403,0.3861 -0.73272,0.86422 -0.73272,1.06251 0,0.19828 -0.18902,0.72604 -0.42005,1.17279 -0.23103,0.44676 -0.57842,1.36358 -0.77199,2.03738 -0.81722,2.84474 -1.49606,4.4364 -2.13054,4.99541 -0.68471,0.60327 -2.0728,0.80509 -2.35845,0.3429 z m 17.02981,-12.73048 c 0.57193,-0.77357 0.58056,-0.85384 0.18205,-1.69363 -0.23008,-0.48486 -0.41833,-1.02418 -0.41833,-1.19847 0,-0.1743 -0.17328,-0.69209 -0.38505,-1.15064 -0.41462,-0.89774 -0.66669,-1.58662 -1.9994,-5.46395 -1.10992,-3.22917 -1.15115,-3.30729 -1.74543,-3.30729 -0.56134,0 -1.26546,1.26421 -2.35782,4.23333 -0.79378,2.15755 -1.13217,3.05211 -2.07876,5.49535 -0.80794,2.08536 -0.8577,2.74872 -0.25608,3.41351 0.38753,0.42821 0.89909,0.48385 4.44816,0.48385 h 4.01028 z m 14.52355,12.38758 c -0.2605,-0.45605 -0.37099,-3.89827 -0.47233,-14.71487 l -0.1323,-14.11956 -1.03626,-0.89554 c -0.56995,-0.49255 -1.28433,-0.89737 -1.5875,-0.8996 -0.74854,-0.006 -1.3205,-0.40121 -1.09868,-0.76012 0.29113,-0.47106 8.61703,-0.39715 9.30194,0.0826 0.29583,0.20721 0.87279,1.24901 1.28214,2.31511 0.40935,1.0661 0.96771,2.49622 1.2408,3.17804 0.27309,0.68182 0.49652,1.3939 0.49652,1.58239 0,0.18849 0.22395,0.94032 0.49766,1.67074 0.56975,1.52042 0.63275,1.70103 2.58624,7.41345 0.79623,2.32833 1.6187,4.60851 1.82773,5.06707 0.20902,0.45855 0.38004,0.9722 0.38004,1.14143 0,0.49048 1.26233,3.11553 1.59793,3.32295 0.49915,0.30849 0.93958,-0.40948 1.67241,-2.72627 0.38111,-1.20486 0.87275,-2.5384 1.09254,-2.96342 0.21979,-0.42503 0.39962,-0.96905 0.39962,-1.20895 0,-0.23989 0.17306,-0.81135 0.38458,-1.26991 0.21153,-0.45855 1.24389,-3.39358 2.29414,-6.52228 3.98789,-11.87992 3.59915,-11.02958 5.14843,-11.26191 1.44571,-0.2168 3.78908,0.0181 4.19113,0.42019 0.19678,0.19678 0.28485,4.97508 0.28485,15.45533 v 15.17049 l -0.66146,0.55019 c -0.96348,0.8014 -2.21078,0.73569 -2.91008,-0.15332 -0.56349,-0.71636 -0.56682,-0.8018 -0.5055,-12.97464 0.0629,-12.48156 0.005,-13.29101 -0.88967,-12.5481 -0.48726,0.40439 -1.30714,2.34658 -2.19916,5.20948 -0.40807,1.30969 -0.83593,2.55985 -0.95081,2.77813 -0.23434,0.44527 -2.46422,7.0215 -4.48577,13.22916 -0.81825,2.51263 -1.54266,4.28038 -1.87033,4.56407 -0.3089,0.26744 -0.96323,0.46302 -1.54907,0.46302 -1.82276,0 -2.1842,-0.57436 -4.24582,-6.74688 -1.02069,-3.05594 -2.02746,-5.93143 -2.23729,-6.38998 -0.20983,-0.45856 -0.3815,-1.02007 -0.3815,-1.2478 0,-0.22773 -0.16861,-0.80505 -0.37468,-1.28293 -0.20608,-0.47788 -0.7393,-1.99997 -1.18495,-3.38241 -1.4447,-4.48163 -2.0085,-5.89309 -2.47033,-6.1844 -1.02237,-0.6449 -1.06737,-0.13409 -1.01754,11.55018 0.0539,12.64103 -0.0471,13.68422 -1.3246,13.68422 -0.50378,0 -0.86559,-0.19705 -1.09307,-0.59532 z m -55.50573,-42.54545 c -0.702671,-0.60724 -1.469151,-1.03209 -1.870381,-1.03675 -0.714472,-0.008 -3.221986,-1.72237 -3.867166,-2.6435 -0.230528,-0.32912 -0.67296,-0.5394 -1.134921,-0.5394 -1.080995,0 -1.594136,-0.25184 -1.594136,-0.78236 0,-0.25364 -0.341372,-0.93241 -0.758604,-1.50838 l -0.758603,-1.04723 0.777218,-0.44606 c 0.562121,-0.32261 0.75376,-0.61126 0.692458,-1.04299 -0.11365,-0.80039 -1.086534,-0.91808 -1.788283,-0.21633 -0.29999,0.29999 -0.577689,0.54543 -0.617108,0.54543 -0.112841,0 -1.155042,-2.07592 -2.040892,-4.06517 -0.744906,-1.67275 -1.304735,-3.51428 -1.320552,-4.34387 -0.0098,-0.51213 1.09093,-0.8222 1.789244,-0.50404 0.47448,0.21617 0.700878,0.17989 1.048883,-0.16812 0.415342,-0.41534 0.415342,-0.47225 0,-0.8876 -0.358974,-0.35897 -0.567049,-0.38764 -1.088653,-0.14998 -0.91669,0.41767 -1.392847,-0.0592 -1.586627,-1.58903 l -0.159191,-1.256771 h 1.153166 c 1.365527,0 2.020363,-0.542592 1.463956,-1.213021 -0.263566,-0.317579 -0.617985,-0.378779 -1.461242,-0.252325 L 85.872738,96.4016 85.769097,95.000279 c -0.057,-0.770727 -0.01676,-1.758509 0.08943,-2.195071 0.192847,-0.792841 0.682187,-4.569916 0.936302,-7.227052 0.106499,-1.113606 0.03528,-1.515839 -0.342275,-1.93303 -0.371846,-0.410885 -0.412684,-0.629412 -0.185579,-0.993064 0.381971,-0.611633 0.241183,-7.54501 -0.176251,-8.67975 -0.170203,-0.462676 -0.270975,-1.163505 -0.223938,-1.557398 0.07106,-0.595044 0.295768,-0.782977 1.328643,-1.111188 1.178148,-0.374373 1.293669,-0.365195 2.210253,0.175602 l 0.967131,0.570622 1.11553,-1.197892 c 1.177432,-1.264365 1.491318,-1.351287 3.484423,-0.964906 0.712387,0.138103 1.527214,0.08736 2.38125,-0.148278 2.370894,-0.654168 4.182614,-0.816017 6.722244,-0.600528 2.01491,0.170966 2.98593,0.118244 4.89479,-0.265767 1.30969,-0.263474 2.50032,-0.403761 2.64584,-0.311749 0.14552,0.09201 1.15755,0.390562 2.24896,0.663446 2.0509,0.512785 3.93102,0.613226 5.58305,0.298261 0.87307,-0.166454 1.02085,-0.09917 1.76498,0.803584 0.7039,0.85396 0.91187,0.960063 1.56069,0.796245 1.6837,-0.42511 3.09951,-0.158779 3.78438,0.71189 0.64882,0.824851 0.64968,0.846941 0.0858,2.210377 -0.43762,1.058068 -0.48048,1.08551 -1.52136,0.974201 -1.36401,-0.145864 -2.29963,0.434276 -1.75627,1.088992 0.22471,0.270751 0.76871,0.425506 1.49576,0.425506 0.62843,0 1.21959,0.12455 1.31367,0.276777 0.0941,0.152227 0.0902,0.864935 -0.009,1.583794 -0.16393,1.191939 -0.22509,1.282754 -0.69468,1.031439 -0.29288,-0.156745 -1.01685,-0.20031 -1.67891,-0.101027 l -1.16399,0.174551 -0.0827,-1.131474 c -0.0455,-0.622311 -0.20953,-1.17308 -0.36453,-1.223932 -0.15501,-0.05085 -0.69079,0.416145 -1.19063,1.03777 l -0.9088,1.130227 v 4.101042 c 0,4.373341 0.0753,4.713232 1.80617,8.154974 0.6857,1.363465 1.09148,1.746889 1.63005,1.540222 0.53907,-0.206861 0.52886,-2.178991 -0.018,-3.487948 -0.23007,-0.55062 -0.45091,-1.816608 -0.49076,-2.813307 -0.0453,-1.133205 -0.22048,-1.984586 -0.46753,-2.272331 -0.69638,-0.811098 -0.74544,-1.378116 -0.20629,-2.38405 0.2885,-0.538275 0.52454,-1.139739 0.52454,-1.336586 0,-0.271452 0.25774,-0.314358 1.06704,-0.177629 0.76624,0.129456 1.24405,0.06429 1.69499,-0.231176 l 0.62795,-0.411451 0.18478,1.592068 c 0.15222,1.311505 0.10437,1.680924 -0.27153,2.096283 -0.4329,0.478348 -0.42599,0.616572 0.13466,2.694377 0.46329,1.716956 0.55348,2.556107 0.41745,3.883885 -0.15197,1.483307 -0.10628,1.765306 0.36778,2.269924 0.47267,0.503138 0.51933,0.78653 0.36794,2.234941 -0.16818,1.609027 -0.19389,1.654817 -0.85805,1.527856 -0.37657,-0.07199 -0.90198,-0.01458 -1.16759,0.127567 -0.79758,0.426853 -0.0332,1.095499 1.02537,0.896915 1.11584,-0.209333 1.21795,0.220223 0.92435,3.888447 -0.2938,3.67064 -0.74823,4.55483 -2.35688,4.58581 -1.25989,0.0243 -1.84659,0.39806 -1.30958,0.83437 0.18807,0.1528 0.58007,0.32161 0.87111,0.37513 0.7356,0.13529 0.77969,0.948 0.13099,2.41449 -0.50584,1.14354 -0.62284,1.24255 -1.39736,1.18252 -0.80134,-0.0621 -0.84106,-0.0219 -0.76392,0.77325 0.13213,1.36212 -0.57608,2.4013 -1.87385,2.74954 -1.89442,0.50834 -2.31357,0.74162 -2.31357,1.28765 0,0.68024 -2.09847,2.42826 -3.37426,2.81073 -0.54525,0.16347 -1.4635,0.62033 -2.04055,1.01525 -0.86562,0.5924 -1.22598,0.68816 -2.05967,0.54731 -0.55828,-0.0943 -1.1544,-0.0524 -1.33206,0.0937 -0.17687,0.14541 -2.10755,0.32545 -4.29039,0.40009 l -3.96881,0.1357 z m 4.63027,-0.91598 c 0,-0.61192 -0.11853,-0.79013 -0.52554,-0.79013 -0.55014,0 -0.82213,0.66432 -0.55597,1.35793 0.27648,0.72049 1.08151,0.29785 1.08151,-0.5678 z m -5.542001,-1.21006 c 0.272659,-0.44117 -0.340574,-0.94708 -0.705569,-0.58208 -0.30531,0.30531 -0.114227,0.86972 0.294446,0.86972 0.128344,0 0.31335,-0.12944 0.411123,-0.28764 z m -3.332089,-2.47778 c 0.374385,-0.4511 0.277478,-1.24695 -0.169975,-1.39592 -0.395578,-0.1317 -0.966312,0.90324 -0.774195,1.40389 0.184931,0.48192 0.540086,0.47893 0.94417,-0.008 z m 11.81061,0.0774 c 0.1043,-0.16875 0.17275,-0.73762 0.15212,-1.26416 -0.0356,-0.90854 0.0432,-1.0017 1.54578,-1.82775 0.87081,-0.47874 1.58329,-0.98437 1.58329,-1.12365 0,-0.33835 -1.17721,-0.76929 -2.10149,-0.76929 -0.40928,0 -0.89235,-0.17859 -1.07351,-0.39687 -0.41684,-0.50227 -1.56392,-0.49795 -2.23338,0.008 -0.28248,0.21366 -0.77391,0.38846 -1.09209,0.38846 -0.82606,0 -1.33838,0.67188 -0.90786,1.19063 0.18115,0.21828 0.44242,0.39687 0.58059,0.39687 0.13817,0 0.77506,0.307 1.41532,0.68221 1.10789,0.64927 1.1455,0.71059 0.77892,1.27005 -0.3389,0.51724 -0.3362,0.65776 0.0225,1.16988 0.44534,0.63581 1.03192,0.7572 1.32981,0.27521 z m 10.95411,-0.88381 c 0,-0.18264 -0.18457,-0.48526 -0.41016,-0.67247 -0.33852,-0.28096 -0.4856,-0.26495 -0.84221,0.0917 -0.39968,0.39969 -0.39568,0.47225 0.0534,0.96853 0.37066,0.40957 0.56988,0.46644 0.84221,0.24042 0.1962,-0.16282 0.35672,-0.44548 0.35672,-0.62813 z m -18.31161,-4.71132 c 0.9148,-0.61618 1.07551,-0.83671 0.8275,-1.13554 -0.59343,-0.71504 -5.270061,-0.36823 -5.270061,0.39082 0,0.3573 2.73,1.8528 3.042709,1.6668 0.14552,-0.0866 0.775456,-0.50149 1.399852,-0.92208 z m 15.69677,0.31252 c 0.94416,-1.01073 0.75664,-1.32023 -1.0861,-1.79251 -1.33501,-0.34215 -2.47562,-0.23513 -3.1106,0.29186 -0.56315,0.46737 -0.37798,0.74959 0.84745,1.29166 0.64882,0.287 1.25116,0.63749 1.33853,0.77887 0.31385,0.50781 1.25253,0.24176 2.01072,-0.56988 z m 6.43277,0.59233 c 0.20337,-0.32907 -0.55782,-0.90757 -0.90877,-0.69066 -0.2065,0.12761 -0.20055,0.28522 0.0208,0.55194 0.35475,0.42745 0.67828,0.47799 0.88797,0.13872 z m -31.980367,-3.49496 c 0.33428,-0.54088 -0.554787,-1.10186 -1.438617,-0.90774 -1.553886,0.34129 -1.387781,1.19772 0.2323,1.19772 0.564907,0 1.107749,-0.13049 1.206317,-0.28998 z m 18.769727,-0.4276 c 1.43255,-0.5167 1.98437,-1.06916 1.98437,-1.98666 0,-1.19093 -0.44243,-1.79368 -1.31661,-1.79368 -1.06202,0 -1.19406,-0.37569 -0.40824,-1.16152 0.36659,-0.36658 0.66652,-0.76442 0.66652,-0.8841 0,-0.11967 -0.47625,-0.851409 -1.05833,-1.626089 -1.35267,-1.800233 -1.4388,-2.512961 -0.22518,-1.863453 0.41259,0.220813 0.63863,0.190778 0.99562,-0.132292 0.67393,-0.609892 1.05182,-0.514061 1.22101,0.309641 0.46874,2.282028 1.01731,4.051723 1.33862,4.318393 0.30795,0.25557 0.28257,0.41084 -0.15887,0.97205 -0.63169,0.80306 -0.68278,1.9886 -0.10632,2.46703 0.55481,0.46045 1.17324,0.0667 1.62175,-1.03242 0.30444,-0.7461 0.28505,-0.89347 -0.17853,-1.35705 -0.31703,-0.31704 -0.41416,-0.5855 -0.2488,-0.6877 0.14919,-0.0922 0.41039,-0.4835 0.58044,-0.86955 0.28969,-0.65764 0.31469,-0.61035 0.39657,0.75017 0.15097,2.5089 1.41584,3.09424 3.16809,1.46608 l 0.9883,-0.9183 -0.76332,-0.61985 c -0.66663,-0.54134 -0.7241,-0.69313 -0.45371,-1.19836 0.40749,-0.761402 0.92329,-0.732043 1.45729,0.0829 0.6236,0.95174 1.36392,0.83494 2.09619,-0.33072 0.70861,-1.128011 1.05747,-3.048689 0.63118,-3.47498 -0.40427,-0.404278 -0.98325,0.141976 -0.98325,0.927684 0,0.606444 -0.0713,0.629062 -1.98438,0.629062 -1.93272,0 -1.98437,-0.01698 -1.98437,-0.652149 0,-0.747069 -0.76398,-1.280793 -1.33138,-0.930118 -0.20726,0.128092 -0.51022,0.6258 -0.67324,1.106018 -0.29132,0.858135 -0.29945,0.843601 -0.47348,-0.846668 -0.0974,-0.945885 -0.0815,-2.060501 0.0353,-2.476924 0.18941,-0.675354 0.25057,-0.711076 0.56623,-0.330729 0.81527,0.982346 2.28042,0.216836 2.44977,-1.279951 0.0871,-0.769931 0.1079,-0.779385 1.5631,-0.710577 1.75859,0.08315 2.16917,-0.262813 2.04798,-1.725708 -0.0589,-0.711516 -0.24865,-1.086541 -0.65031,-1.285565 -0.3119,-0.154549 -0.73958,-0.424144 -0.95039,-0.599101 -0.4884,-0.405337 -0.76011,-0.139221 -0.58859,0.57648 0.17464,0.728726 -0.86401,2.454286 -1.24685,2.07145 -0.15126,-0.151263 -0.31057,-0.851768 -0.35402,-1.556679 -0.0708,-1.148798 -0.14852,-1.290172 -0.74969,-1.363828 -0.41036,-0.05028 -0.88231,0.129447 -1.21588,0.463021 -0.65729,0.657284 -0.89736,0.67337 -1.74646,0.117022 -1.0288,-0.674096 -1.44457,-0.127659 -1.44457,1.898553 0,1.763875 -0.33112,3.027536 -0.7933,3.027536 -0.15248,0 -0.079,-0.302533 0.16327,-0.672297 0.35477,-0.541437 0.38215,-0.800381 0.14068,-1.330342 -0.1649,-0.361925 -0.47945,-0.726973 -0.69899,-0.811219 -0.50682,-0.194488 -0.51248,-0.731464 -0.0121,-1.146759 0.33851,-0.280939 0.33344,-0.403092 -0.0404,-0.973584 -0.40234,-0.614046 -0.39343,-0.69416 0.15175,-1.364798 0.31855,-0.391853 0.64825,-0.920819 0.73267,-1.17548 0.2007,-0.60543 0.62094,-0.596477 0.62094,0.01323 0,0.918853 0.49006,1.074971 1.80576,0.575258 l 1.23695,-0.469802 V 79.24572 72.115953 l -1.24605,-1.263599 -1.24606,-1.2636 -2.12187,-0.03138 c -2.10474,-0.03113 -2.12934,-0.02369 -3.04707,0.921157 -1.03301,1.063532 -2.021,1.285805 -5.73416,1.290036 -1.5165,0.0017 -2.104565,0.10646 -2.365904,0.421353 -0.534209,0.643683 0.02472,1.300739 1.106484,1.300739 0.88281,0 0.89752,0.01909 0.97744,1.269021 0.0702,1.097375 0.1768,1.305391 0.78837,1.537907 0.83429,0.317198 1.10529,0.68133 1.11081,1.492551 0.007,1.084533 -1.16341,0.645372 -1.46313,-0.548818 -0.11064,-0.440819 -0.57554,-0.991623 -1.14545,-1.357098 -0.871745,-0.559032 -1.001477,-0.577875 -1.422263,-0.206575 -0.59235,0.522687 -0.61624,2.37131 -0.04125,3.192218 0.394925,0.563834 0.46169,0.576 1.049023,0.191163 1.04548,-0.685023 1.25764,-0.533259 1.10818,0.792701 -0.16906,1.499982 -0.31892,1.653917 -1.00534,1.032715 -0.871581,-0.788774 -1.425008,-0.236107 -1.519375,1.517293 -0.05956,1.106598 0.03954,1.595167 0.41844,2.063094 l 0.496477,0.613123 0.876148,-1.090257 c 0.8582,-1.067912 2.32256,-1.818756 3.02294,-1.549996 0.19169,0.07356 0.4231,0.600106 0.51424,1.170108 0.0911,0.570002 0.38633,1.236012 0.65596,1.480022 0.46014,0.416421 0.51882,0.412059 0.95604,-0.07107 0.39993,-0.44191 0.42185,-0.647942 0.15499,-1.456529 -0.17095,-0.517996 -0.51007,-1.091008 -0.7536,-1.273361 -0.74806,-0.560154 -1.43828,-2.310293 -1.08093,-2.740866 0.69862,-0.841795 1.82879,-0.224364 1.82879,0.999104 0,0.507548 0.24407,0.913362 0.79375,1.319757 0.93158,0.688749 0.98478,1.026179 0.26458,1.677956 -0.38138,0.345146 -0.52917,0.814908 -0.52917,1.682057 0,0.993203 0.14659,1.354411 0.84002,2.069846 0.79343,0.818607 0.81544,0.893839 0.39688,1.356346 -0.58264,0.643811 -0.55936,1.032401 0.086,1.435445 0.66213,0.413509 0.66954,0.633922 0.0269,0.801964 -0.27622,0.07223 -0.71452,0.455331 -0.97398,0.851329 -0.5773,0.881069 -0.33419,1.375493 1.03107,2.096953 1.06444,0.562491 1.06095,0.805817 -0.0154,1.074447 -0.40156,0.100219 -0.92899,0.361411 -1.17207,0.580428 -0.39684,0.357551 -0.47113,0.343715 -0.72761,-0.135512 -0.1571,-0.293548 -0.28564,-0.701852 -0.28564,-0.907342 0,-0.76072 -2.7846,-5.474075 -3.49249,-5.91158 -0.13476,-0.08328 -0.47689,0.05841 -0.76029,0.314883 -0.49386,0.446943 -0.54058,0.442525 -1.12486,-0.106373 -0.335267,-0.314976 -0.867532,-0.572683 -1.182803,-0.572683 -0.411828,0 -0.616322,-0.204859 -0.72631,-0.727604 -0.0842,-0.400182 -0.247611,-0.906198 -0.363134,-1.124479 -0.290905,-0.549664 -2.890965,-0.8285 -3.611208,-0.387273 -0.584256,0.357921 -1.311261,2.332887 -1.02767,2.791747 0.112378,0.181832 0.972457,0.214237 2.504711,0.09437 l 2.333563,-0.182551 0.182859,1.219393 c 0.142338,0.949174 0.06673,1.454115 -0.3412,2.278611 -0.492462,0.995354 -0.50003,1.145551 -0.125515,2.491101 0.378858,1.361155 0.370614,1.489577 -0.166885,2.599902 -0.709818,1.46629 -0.706552,1.742491 0.02988,2.527299 0.514258,0.548034 0.595328,0.920934 0.595426,2.738754 8.5e-5,1.58227 0.09855,2.16656 0.396875,2.35515 0.624413,0.39472 1.475171,0.30231 2.134871,-0.23188 l 0.60611,-0.4908 -0.6739,-1.16285 c -0.92531,-1.59669 -0.84661,-3.780918 0.21725,-6.029591 0.41705,-0.8815 0.8629,-1.605612 0.99078,-1.609138 0.35527,-0.0098 2.38814,1.884936 2.60334,2.426438 0.26383,0.66389 0.026,1.148215 -0.73374,1.49439 -0.80166,0.365257 -0.83599,1.174331 -0.0714,1.682011 0.6756,0.44858 0.50639,1.26992 -0.26162,1.26992 -0.61801,0 -1.27666,0.70823 -1.50325,1.61641 -0.37454,1.5012 2.26561,3.07786 3.59488,2.1468 0.54621,-0.38258 0.61479,-0.36329 1.10613,0.31121 0.35874,0.49247 0.65922,0.66128 0.95348,0.53565 0.23631,-0.10089 0.9059,-0.35521 1.48799,-0.56515 z M 109.0221,93.545956 c -0.27235,-0.07058 -0.4416,-0.313583 -0.39326,-0.56462 0.12294,-0.638344 0.77376,-0.54075 1.03098,0.154601 0.22469,0.607373 0.1957,0.626007 -0.63772,0.410019 z m -0.0236,-8.702125 c -0.17994,-0.468931 0.005,-0.902165 0.38504,-0.902165 0.13694,0 0.24897,0.297656 0.24897,0.661458 0,0.740128 -0.38611,0.886718 -0.63401,0.240707 z m 2.33432,-1.09799 c -0.16556,-0.668427 -0.47072,-1.097402 -0.94032,-1.321835 -0.62707,-0.299688 -0.68268,-0.443623 -0.56719,-1.468227 0.17083,-1.515624 -0.22206,-1.847235 -1.73395,-1.463478 -0.61803,0.156872 -1.2039,0.205009 -1.30194,0.106971 -0.098,-0.09804 -0.18305,-0.798215 -0.18893,-1.55595 -0.0118,-1.518648 -0.0421,-1.503173 2.37056,-1.209674 0.78656,0.09568 0.79449,0.08378 0.87447,-1.313981 0.0486,-0.849167 -0.0501,-1.568135 -0.24792,-1.806522 -0.28618,-0.344832 -0.38875,-0.316424 -0.79403,0.219915 -0.38438,0.508679 -0.52547,0.555232 -0.81042,0.267417 -0.28416,-0.28702 -0.21669,-0.44257 0.38259,-0.881964 0.44586,-0.326902 0.72761,-0.781075 0.72761,-1.172874 0,-0.589785 0.10133,-0.63939 1.30615,-0.63939 1.27672,0 1.30802,0.01914 1.38906,0.849498 0.064,0.656021 0.23356,0.884379 0.74437,1.002651 0.47957,0.111039 0.68504,0.356116 0.7472,0.891264 0.0742,0.639197 0.004,0.726436 -0.52646,0.650995 -0.36851,-0.05244 -0.64578,-0.297757 -0.69655,-0.616283 -0.18056,-1.132902 -0.29413,-1.275177 -0.72948,-0.91387 -0.3009,0.249724 -0.38527,0.751448 -0.3276,1.948028 0.0739,1.534096 0.10877,1.60821 0.72354,1.539693 0.35522,-0.03959 0.99859,-0.247949 1.42971,-0.463021 0.43112,-0.215071 0.82509,-0.391038 0.8755,-0.391038 0.0504,0 0.0916,0.9525 0.0916,2.116666 0,1.164167 -0.0637,2.116667 -0.1416,2.116667 -0.0779,0 -0.4053,-0.166196 -0.72761,-0.369325 -1.17248,-0.738952 -1.71906,-0.758238 -2.16581,-0.07642 -0.32353,0.493769 -0.35701,0.800968 -0.14737,1.352341 0.25527,0.671432 0.34137,0.702922 1.46223,0.534838 1.00969,-0.151412 1.19099,-0.110962 1.19099,0.265711 0,0.604019 -0.41053,1.325165 -1.20883,2.123468 -0.36702,0.367018 -0.70042,0.667305 -0.74091,0.667305 -0.0405,0 -0.18389,-0.445309 -0.3187,-0.989575 z m -7.20788,-8.85673 c 0.0737,-0.766585 0.18524,-0.879119 0.94351,-0.95223 0.7633,-0.0736 0.8599,-0.0085 0.8599,0.579698 0,0.737257 -0.0766,0.808622 -1.14195,1.063555 -0.71254,0.170512 -0.74142,0.14034 -0.66146,-0.691023 z m -7.8108,31.392979 c 0.08732,-0.22757 0.03421,-0.68713 -0.118028,-1.02126 -0.215502,-0.47297 -0.572345,-0.64671 -1.611408,-0.78455 -0.734035,-0.0974 -1.406061,-0.29265 -1.49339,-0.43395 -0.08733,-0.1413 -0.334085,-0.25691 -0.548345,-0.25691 -1.366352,0 0.07587,2.53657 1.545992,2.71907 1.740555,0.21607 2.069538,0.18319 2.225179,-0.2224 z m 22.54809,0.16119 c 0.52621,-0.13891 1.28837,-0.32082 1.6937,-0.40427 0.95973,-0.19757 1.46519,-1.35546 0.85714,-1.96352 -0.35805,-0.35804 -0.48946,-0.36338 -1.00306,-0.0407 -0.32507,0.20421 -1.06153,0.51098 -1.63657,0.68171 -1.15384,0.34258 -1.63999,0.88498 -1.38613,1.54652 0.19444,0.5067 0.22449,0.51037 1.47492,0.18029 z m -22.75872,-3.60583 c 0.05337,-0.27898 0.321262,-0.82328 0.595313,-1.20954 0.670761,-0.94542 0.627285,-1.44993 -0.169965,-1.972308 -0.625755,-0.410011 -0.701448,-0.407792 -1.190625,0.03491 -0.878112,0.794678 -0.568744,4.066018 0.355422,3.758328 0.172049,-0.0573 0.356483,-0.33241 0.409855,-0.61139 z m 30.6102,-1.30099 c 0.5084,-0.39287 0.5084,-0.40089 0,-0.79375 -1.04997,-0.811366 -2.76663,-0.13005 -1.99995,0.79375 0.18116,0.21828 0.5897,0.39687 0.90787,0.39687 0.31817,0 0.80961,-0.17859 1.09208,-0.39687 z M 94.104145,99.233676 c 0.372602,-0.762333 0.414589,-1.100078 0.189129,-1.521355 -0.386547,-0.722268 -0.915482,-0.682407 -2.008623,0.151373 -1.011275,0.771337 -1.126042,1.273926 -0.459173,2.010808 0.716674,0.791918 1.715716,0.510958 2.278667,-0.640826 z m 2.563784,-2.59201 c 0.291042,-0.291042 0.529167,-0.627475 0.529167,-0.74763 0,-0.445564 -1.307008,-1.431757 -1.698445,-1.281548 -0.65433,0.25109 -0.81585,1.443623 -0.276282,2.039839 0.588303,0.650068 0.786291,0.648608 1.44556,-0.01066 z m -2.489211,-2.513542 c 0.401483,-0.612741 0.401483,-0.710176 0,-1.322916 -0.518196,-0.790867 -1.095245,-0.850351 -1.469281,-0.151459 -0.273567,0.511164 -0.150952,1.186384 0.327795,1.805104 0.378028,0.488555 0.657779,0.407501 1.141486,-0.330729 z m 27.610652,0.158398 c 0.2684,-0.501493 -0.047,-1.970155 -0.54009,-2.515205 -0.62436,-0.690118 -1.50459,1.576213 -0.99245,2.555245 0.32082,0.613283 1.19512,0.590441 1.53254,-0.04004 z M 91.191945,92.276041 c 0.139352,-0.436563 0.416425,-0.981719 0.615717,-1.211459 0.199293,-0.229739 0.36235,-0.680048 0.36235,-1.000685 0,-0.320638 0.195206,-1.025638 0.433791,-1.566667 0.29124,-0.660434 0.474146,-2.027043 0.556598,-4.158689 0.112994,-2.921288 0.06747,-3.332805 -0.569729,-5.149793 -0.811289,-2.313419 -1.047445,-2.625292 -1.684713,-2.224874 -0.566797,0.356138 -0.776342,3.678322 -0.327935,5.199165 0.256669,0.870532 0.224762,1.097708 -0.247284,1.760635 -0.620821,0.871863 -0.675992,1.398081 -0.222682,2.123945 0.254919,0.40819 0.22814,0.87424 -0.132818,2.311514 -0.983678,3.916844 -0.929622,4.934663 0.254635,4.794523 0.520071,-0.06154 0.776141,-0.295135 0.96207,-0.877615 z m 5.637048,-0.80053 c 0.410011,-0.625755 0.407792,-0.701448 -0.03491,-1.190625 -0.815454,-0.901066 -1.97824,-0.508284 -1.97824,0.668238 0,1.256778 1.309338,1.596536 2.013147,0.522387 z m -8.230856,-0.919262 c 0,-0.465568 -1.384993,-0.705215 -1.781886,-0.308321 -0.444873,0.444873 0.06885,0.871476 0.946821,0.786254 0.529866,-0.05143 0.835065,-0.226108 0.835065,-0.477933 z m 37.306253,0.0036 c 0,-0.471018 -0.87273,-0.691942 -1.24859,-0.316074 -0.14649,0.146489 -0.18214,0.402588 -0.0792,0.56911 0.26301,0.425556 1.32782,0.22264 1.32782,-0.253036 z M 104.53936,87.44751 c 0.14466,-0.434479 -0.68434,-0.744627 -1.03991,-0.389054 -0.15217,0.152164 -0.19259,0.412691 -0.0898,0.578948 0.23377,0.378253 0.98248,0.252406 1.12975,-0.189894 z m -4.05523,-0.677345 c 0.33687,-0.534042 -0.0632,-1.3265 -0.736506,-1.459015 -0.592365,-0.11658 -0.834161,0.635716 -0.464846,1.446272 0.327398,0.718561 0.753282,0.723078 1.201352,0.01274 z m -10.950645,-0.06161 c 0.461776,-0.556405 -0.0013,-0.980642 -0.948857,-0.869367 -0.946627,0.111161 -1.138989,0.675945 -0.339378,0.996431 0.85036,0.340825 0.904341,0.335501 1.288235,-0.127064 z M 125.2381,86.596531 c 0.23073,-0.431128 0.16147,-0.596724 -0.40471,-0.9677 -0.65252,-0.427552 -0.70795,-0.422686 -1.23947,0.108833 -0.46468,0.46468 -0.50013,0.624199 -0.21505,0.9677 0.47781,0.575726 1.52569,0.514387 1.85923,-0.108833 z m -7.05335,-3.46974 c 0.11982,-1.807392 0.23888,-5.250698 0.26458,-7.651792 l 0.0467,-4.365625 h -0.79375 -0.79375 l 0.0704,7.408333 c 0.0387,4.074584 0.12806,7.567063 0.19858,7.761065 0.0705,0.194002 0.27696,0.303559 0.45879,0.243459 0.22435,-0.07416 0.4006,-1.165322 0.54845,-3.39544 z m -20.307922,0.270542 c 0.481753,-0.399819 0.486491,-1.153416 0.0097,-1.549085 -0.578657,-0.480243 -2.990891,-0.683462 -3.462896,-0.291733 -0.485923,0.40328 -0.527135,1.620314 -0.07085,2.092146 0.397895,0.41145 2.94422,0.229849 3.524003,-0.251328 z m -9.28999,-3.141552 c 0.195671,-0.316601 -0.302055,-0.630297 -0.654475,-0.41249 -0.295899,0.182876 -0.101644,0.658791 0.268899,0.658791 0.128345,0 0.301854,-0.110835 0.385576,-0.246301 z m 9.44932,-1.249914 c 0.59774,-0.540947 0.607142,-0.839428 0.04597,-1.459514 -0.357291,-0.394802 -0.842534,-0.483854 -2.636524,-0.483854 -1.927853,0 -2.233522,0.06517 -2.481844,0.529167 -0.308841,0.577076 -0.0056,1.434956 0.592281,1.675844 0.183569,0.07395 1.157824,0.143862 2.165011,0.155351 1.354814,0.01545 1.957134,-0.09304 2.315104,-0.416994 z m -8.037581,-1.994433 c 0.244475,-0.244475 0.186349,-0.45328 -0.257787,-0.926041 -1.067993,-1.136826 -2.190932,-0.644353 -1.252136,0.549133 0.595115,0.756565 1.023366,0.863466 1.509923,0.376908 z m 30.217273,-0.844471 c 0,-0.329848 0.29765,-0.879356 0.66145,-1.221131 0.81877,-0.769191 0.82138,-0.935391 0.0263,-1.672258 -0.34934,-0.323761 -0.67677,-0.883623 -0.7276,-1.244137 -0.0508,-0.360514 -0.20484,-0.625833 -0.34223,-0.589597 -0.23539,0.06208 -0.42724,4.99346 -0.2112,5.428537 0.18837,0.379341 0.59329,-0.09937 0.59329,-0.701414 z M 97.792408,74.637736 c 0.496006,-0.256764 0.634325,-1.406886 0.201379,-1.674461 -0.159505,-0.09858 -0.08778,-0.427053 0.183738,-0.841442 0.421863,-0.643843 0.419037,-0.699 -0.05351,-1.044536 -0.336276,-0.24589 -1.273359,-0.364798 -2.874885,-0.364798 -2.581281,0 -3.343701,0.33216 -3.343701,1.456733 0,0.319533 -0.131229,0.957414 -0.29162,1.417512 -0.54568,1.565338 -0.319625,1.68152 2.869832,1.474971 1.565161,-0.101359 3.054106,-0.29215 3.308767,-0.423979 z m 7.428082,-3.834747 c 0.0958,-0.09575 0.0403,-0.335345 -0.12329,-0.532429 -0.22339,-0.269164 -0.3867,-0.284222 -0.65625,-0.06051 -0.19738,0.163803 -0.29361,0.403397 -0.21387,0.532429 0.17006,0.275153 0.74382,0.310102 0.99341,0.06051 z m -1.94508,-0.624048 c -0.17383,-0.107433 -0.56439,-0.130392 -0.86791,-0.05102 -0.53365,0.139551 -0.53486,0.150369 -0.0369,0.327831 0.64964,0.231498 1.37042,0.01098 0.90477,-0.276811 z M 76.096575,107.57894 c -0.215927,-0.0871 -0.330729,-0.71757 -0.330729,-1.81619 0,-1.43851 -0.0864,-1.74651 -0.595313,-2.12206 -0.327422,-0.24163 -0.47625,-0.48836 -0.330729,-0.5483 1.482592,-0.61068 1.589589,-0.75736 1.497376,-2.05276 -0.08391,-1.178758 -0.04971,-1.260006 0.495993,-1.178362 0.401775,0.06011 0.679767,0.378942 0.883874,1.013732 0.331891,1.0322 1.174632,1.35831 1.742369,0.67423 0.641368,-0.77281 1.272294,-0.49669 1.464489,0.6409 0.09762,0.5778 0.385474,1.32194 0.639678,1.65364 0.734121,0.95794 0.842934,1.51297 0.512706,2.61517 -0.394561,1.31693 -0.851022,1.34429 -0.641537,0.0385 0.229095,-1.42808 -0.149358,-2.5327 -0.966272,-2.82034 -1.248774,-0.43969 -3.391177,1.78277 -3.137916,3.25518 0.03488,0.20279 -0.09455,0.46886 -0.287629,0.59126 -0.38717,0.24546 -0.464237,0.24998 -0.94636,0.0554 z m 3.571875,-1.56493 c -0.109141,-0.11007 -0.198438,-0.44222 -0.198438,-0.73811 0,-0.38941 0.07992,-0.45806 0.289396,-0.24859 0.159168,0.15917 0.248465,0.49132 0.198438,0.73811 -0.05003,0.2468 -0.180256,0.35866 -0.289396,0.24859 z m -9.040592,-4.11112 -0.729568,-0.57388 0.722067,-0.57576 0.722067,-0.57576 -0.461079,-1.388175 c -0.253594,-0.763499 -0.400483,-1.448777 -0.326419,-1.522841 0.07406,-0.07406 0.497,0.05271 0.939859,0.281724 1.072793,0.554763 1.973534,0.525607 2.523112,-0.08167 0.481897,-0.532491 0.39745,-1.42014 -0.254674,-2.676946 -0.188767,-0.363803 -0.780918,-1.613959 -1.315891,-2.778126 -1.988025,-4.326191 -2.617382,-5.654431 -4.638575,-9.789583 -1.976759,-4.044244 -2.072287,-4.324411 -2.138692,-6.27239 -0.03823,-1.121481 0.0069,-2.115447 0.100248,-2.208814 0.472657,-0.472657 2.901117,2.340987 3.894705,4.512454 0.798949,1.746088 2.413922,5.166762 4.059751,8.598958 1.860002,3.878831 2.551359,4.546744 3.664034,3.539787 0.723041,-0.654343 1.398793,-0.274312 1.12,0.629866 -0.353283,1.145765 -0.272576,3.635231 0.13371,4.124397 0.52319,0.629916 2.277069,0.57513 2.944166,-0.09197 l 0.529167,-0.529167 v 0.60637 c 0,0.364715 -0.452128,1.0501 -1.134494,1.719792 -1.084222,1.064083 -1.206477,1.113422 -2.758922,1.113422 -1.436529,0 -1.687363,0.08001 -2.168523,0.691705 -0.473042,0.601375 -0.670639,0.667967 -1.513094,0.509921 -0.532949,-0.09998 -1.232442,-0.3544 -1.55443,-0.565375 -0.495222,-0.324482 -0.631889,-0.327614 -0.886914,-0.02033 -0.310186,0.373752 -0.513428,2.672041 -0.293571,3.319751 0.206602,0.60866 -0.405862,0.61002 -1.17804,0.003 z m 64.067872,0.0304 c -0.37,-0.29104 -0.83895,-0.52916 -1.04211,-0.52916 -0.362,0 -2.06069,-1.579352 -2.06069,-1.915915 0,-0.09401 0.38372,0.17955 0.85272,0.607905 0.46899,0.42836 0.98632,0.77884 1.14961,0.77884 0.1633,0 0.51241,0.23812 0.77579,0.52917 0.29708,0.32826 0.81491,0.52916 1.36393,0.52916 0.48677,0 0.88503,0.11907 0.88503,0.26459 0,0.45631 -1.22129,0.28839 -1.92428,-0.26459 z m 4.70241,0.1636 2.38125,-0.29589 0.13229,-1.10418 0.13229,-1.104186 0.59531,0.485136 c 0.8885,0.72406 0.72459,1.13026 -0.72204,1.78938 -0.98494,0.44876 -1.74894,0.58673 -3.10347,0.56047 l -1.79688,-0.0348 z m -3.04271,-3.588644 c -0.21828,-0.149059 -0.77457,-0.27284 -1.2362,-0.275069 -1.10299,-0.0053 -2.94253,-1.41065 -3.74456,-2.860677 -0.33833,-0.611668 -0.73103,-1.112124 -0.87267,-1.112124 -0.14164,0 -0.41306,0.369887 -0.60314,0.821971 -0.34189,0.813096 -0.34767,0.802383 -0.53537,-0.992187 -0.29909,-2.859536 -0.1846,-4.334842 0.39343,-5.069694 0.2822,-0.358757 0.51309,-0.822196 0.51309,-1.029864 0,-0.207668 0.31096,-1.054815 0.69101,-1.882548 0.38006,-0.827734 0.92437,-2.040751 1.20958,-2.695595 0.28522,-0.654844 0.62518,-1.391078 0.75547,-1.636076 0.55919,-1.051476 1.41225,-3.944768 1.7409,-5.904549 0.46627,-2.780409 0.45513,-4.309 -0.0417,-5.721423 -0.46268,-1.315348 -2.61191,-3.653613 -4.22296,-4.594384 -1.05902,-0.618418 -4.47489,-1.972825 -6.2177,-2.465346 l -0.92605,-0.261701 1.3251,-0.02701 c 1.21894,-0.02485 4.15647,0.830525 6.2648,1.824235 0.79197,0.373275 1.53823,0.207269 1.53823,-0.342182 0,-0.941085 -6.77842,-5.20658 -8.29093,-5.217281 -0.31494,-0.0022 -0.75121,-0.119468 -0.96949,-0.260532 -0.67437,-0.435813 1.62336,-0.311615 2.47764,0.133921 0.41682,0.217385 0.89307,0.395693 1.05834,0.396241 0.16526,5.47e-4 0.95533,0.331995 1.75569,0.736551 5.03706,2.546056 8.30417,5.938594 9.86398,10.242662 0.94339,2.603136 1.03935,3.191343 0.92669,5.680372 -0.0984,2.174615 -0.2342,2.771288 -0.98652,4.334928 -0.47981,0.997269 -1.23728,2.22881 -1.68327,2.736757 -1.19928,1.365908 -0.81449,1.778771 1.74942,1.877063 1.88331,0.0722 2.03624,0.0362 2.43568,-0.573433 0.30112,-0.459563 0.37402,-0.928675 0.24838,-1.598391 -0.13321,-0.710041 -0.0874,-0.94833 0.18234,-0.949551 0.1981,-8.97e-4 0.70531,-0.18162 1.12714,-0.401607 0.90647,-0.472724 0.93455,-0.454049 1.21992,0.811254 0.28243,1.252261 0.14637,1.573481 -0.9548,2.254042 -0.49489,0.305855 -0.89979,0.707119 -0.89979,0.891698 0,0.184579 0.38514,0.859477 0.85588,1.499775 2.05059,2.789232 2.33521,5.058938 1.00593,8.021665 -0.43122,0.961093 -0.9288,2.230655 -1.10575,2.82125 -0.27545,0.919366 -0.40052,1.046748 -0.86962,0.885668 -0.72239,-0.248053 -1.83743,-0.254336 -3.45832,-0.01949 -0.7979,0.115607 -1.48042,0.08412 -1.71979,-0.07934 z m 4.33173,-1.557784 c 1.97457,-1.330121 1.83328,-2.605024 -0.41035,-3.702605 -0.62879,-0.307603 -1.44091,-0.734685 -1.80471,-0.94907 -3.52973,-2.080038 -4.57061,-2.563119 -5.35729,-2.486369 -1.21883,0.11891 -1.64817,1.014773 -1.40791,2.937741 0.15599,1.248465 0.39247,1.758617 1.3735,2.962929 1.61711,1.985179 2.16555,2.231514 4.59576,2.064217 1.55612,-0.107125 2.20853,-0.286283 3.011,-0.826843 z m 2.63023,-4.490501 c 0.39102,-0.408145 0.71096,-0.887791 0.71096,-1.065879 0,-0.784635 -1.64462,-3.521074 -2.29402,-3.81696 -0.63604,-0.2898 -0.75661,-0.23601 -1.56363,0.697573 -1.60622,1.858126 -1.46605,3.084065 0.48236,4.218582 1.47423,0.858411 1.81407,0.854162 2.66433,-0.03332 z m -5.6465,-2.428928 c 0.62394,-0.333923 1.85954,-2.53477 1.85954,-3.31221 0,-0.96283 -0.6327,-1.280351 -2.22399,-1.116115 -1.9749,0.203828 -3.59684,1.244435 -3.59684,2.307668 0,0.622374 0.20766,0.917541 0.99218,1.410298 1.61329,1.013291 2.15908,1.143873 2.96911,0.710359 z m -54.314731,4.329908 c -0.263714,-0.35234 -0.574873,-0.581662 -0.691466,-0.509603 -0.116593,0.07206 -0.278119,-0.598299 -0.358947,-1.489683 -0.19904,-2.195051 -1.300978,-4.304172 -2.838482,-5.432886 -1.693034,-1.242891 -2.052531,-1.617698 -3.1189,-3.251727 -1.463821,-2.243053 -1.906139,-3.159737 -2.45597,-5.08988 -0.636873,-2.235695 -0.639214,-3.586799 -0.01077,-6.217979 1.093092,-4.576604 3.482636,-7.71077 8.380739,-10.992319 0.589905,-0.395214 1.235374,-0.718572 1.434375,-0.718572 0.199001,0 0.570849,-0.189169 0.82633,-0.420376 0.25548,-0.231206 0.895067,-0.517482 1.421303,-0.636167 0.806066,-0.181798 0.908212,-0.157255 0.648406,0.155792 -0.169613,0.204371 -0.582148,0.371584 -0.916743,0.371584 -0.6588,0 -3.404259,1.752743 -4.860808,3.103214 -0.765287,0.709553 -0.85153,0.900849 -0.562915,1.248608 0.444361,0.535423 0.775006,0.518218 2.165374,-0.112677 1.228596,-0.55749 2.483997,-0.71097 2.211706,-0.270395 -0.08994,0.145521 -0.37433,0.264584 -0.631984,0.264584 -0.732826,0 -3.625022,2.783552 -4.264291,4.104106 -1.982252,4.094786 -1.675146,9.342058 0.79731,13.622977 0.126069,0.218282 0.544899,1.051719 0.930734,1.852084 0.385835,0.800364 0.867439,1.788555 1.07023,2.19598 0.809464,1.626277 1.850477,7.537507 1.484098,8.427216 -0.15544,0.377469 -0.244916,0.3498 -0.659325,-0.203881 z M 79.087385,83.389445 c 0.272659,-0.441171 -0.340574,-0.947078 -0.705569,-0.582083 -0.305309,0.305309 -0.114226,0.86972 0.294446,0.86972 0.128345,0 0.31335,-0.129436 0.411123,-0.287637 z m -1.469456,5.182429 c 0,-0.220486 0.235185,-0.396875 0.529167,-0.396875 0.293981,0 0.529166,0.176389 0.529166,0.396875 0,0.220486 -0.235185,0.396875 -0.529166,0.396875 -0.293982,0 -0.529167,-0.176389 -0.529167,-0.396875 z m 32.643261,-21.436787 -0.82653,-0.928722 -2.21947,0.170602 c -1.95617,0.150363 -2.34417,0.103769 -3.27059,-0.392766 -1.24475,-0.667145 -1.70756,-0.6994 -2.39746,-0.16709 -0.50093,0.386514 -0.49529,0.412594 0.22877,1.058333 l 0.74236,0.662055 h -1.06629 c -0.89471,0 -1.12745,-0.117085 -1.44634,-0.727604 -0.20903,-0.400183 -0.758773,-1.084792 -1.221654,-1.521355 -0.462882,-0.436562 -1.066128,-1.230207 -1.340548,-1.763655 -0.27442,-0.533448 -0.855365,-1.223699 -1.290989,-1.53389 -0.761216,-0.542034 -0.845699,-0.54805 -2.170678,-0.154574 -1.575779,0.467956 -2.714119,0.534616 -2.473217,0.144828 0.08994,-0.145521 0.505427,-0.264584 0.92331,-0.264584 1.335559,0 4.083693,-1.998146 3.920349,-2.850454 -0.06581,-0.343372 -0.455259,-0.49646 -1.568021,-0.616367 -1.788706,-0.192744 -2.085013,-0.35408 -2.085013,-1.135267 0,-0.335457 -0.351522,-0.915316 -0.79375,-1.309343 -0.436562,-0.388979 -0.79375,-0.849542 -0.79375,-1.023473 0,-0.173931 0.446484,0.106151 0.992188,0.622405 1.304455,1.23406 2.538897,1.913107 4.210504,2.316133 1.172421,0.282671 1.481719,0.269679 2.180321,-0.09158 1.029429,-0.532338 1.717828,-1.567346 1.527228,-2.296193 -0.08088,-0.309305 0.0412,-0.849753 0.27138,-1.200996 0.54176,-0.826831 0.29624,-1.369805 -1.516028,-3.352714 -2.144774,-2.346724 -3.225539,-4.27485 -3.367716,-6.008134 -0.106771,-1.301643 -0.03968,-1.563799 0.592504,-2.315104 0.497833,-0.591641 0.942488,-0.847244 1.473893,-0.847244 0.418541,0 1.27116,-0.169884 1.894709,-0.37752 0.623549,-0.207636 1.700068,-0.459399 2.392268,-0.559474 1.03266,-0.149298 1.39996,-0.360509 2.04648,-1.176812 0.43337,-0.547172 0.93859,-1.456269 1.12271,-2.020214 0.26362,-0.807445 0.48396,-1.042623 1.03679,-1.106607 0.83311,-0.09642 1.54694,0.749181 1.54694,1.832506 0,1.066865 1.51419,2.274872 3.09769,2.471297 0.69736,0.0865 1.62512,0.26552 2.06168,0.397813 0.43656,0.132292 1.34536,0.319117 2.01954,0.415167 0.92705,0.132074 1.36231,0.359285 1.78594,0.932276 1.20754,1.63329 0.35768,4.879048 -1.83234,6.997995 -1.24706,1.206585 -2.89918,3.569015 -2.89918,4.145641 0,0.213357 0.29766,0.64673 0.66146,0.963052 0.45713,0.397475 0.66146,0.846352 0.66146,1.453165 0,0.666125 0.18898,1.017754 0.78303,1.456958 0.91861,0.679154 1.57975,0.715887 3.13501,0.174181 1.50309,-0.523536 2.38238,-1.09881 3.41313,-2.233034 0.46689,-0.513754 0.85384,-0.786189 0.8599,-0.60541 0.006,0.180778 -0.34618,0.646943 -0.78274,1.035922 -0.44679,0.398088 -0.79375,0.973185 -0.79375,1.315649 0,0.781295 -0.71854,1.156199 -2.21595,1.156199 -1.36197,0 -1.59474,0.214533 -1.24134,1.144059 0.25096,0.660062 2.63848,1.999602 4.38333,2.459305 l 0.79375,0.209124 -0.8922,0.0973 c -0.49071,0.05352 -1.71886,-0.173708 -2.72923,-0.504946 -2.23776,-0.733624 -2.66751,-0.56105 -2.86918,1.152172 -0.0984,0.835771 -0.39488,1.484121 -0.98724,2.158783 -0.46564,0.530342 -1.02868,1.316309 -1.25119,1.746594 -0.33083,0.639761 -1.11773,1.332401 -1.50617,1.32576 -0.046,-7.85e-4 -0.45548,-0.419353 -0.91007,-0.93015 z m -1.1075,-2.784464 c 1.12635,-1.811834 1.28835,-2.293433 1.01411,-3.014746 -0.35628,-0.937065 -1.1002,-1.258957 -2.10227,-0.909636 -1.08567,0.37847 -1.34343,0.927309 -1.34343,2.86053 0,1.59967 -0.003,1.604894 -0.77814,1.604894 -0.75732,0 -1.21224,0.302676 -0.90968,0.605239 0.0824,0.08243 0.87815,0.123462 1.76825,0.09117 1.60844,-0.05835 1.62287,-0.06594 2.35116,-1.237455 z m 4.0012,-0.201039 c 0.81618,-0.851915 0.87741,-1.283777 0.29908,-2.109464 -0.58958,-0.841746 -1.35786,-0.735846 -1.97227,0.271858 -1.24581,2.043275 0.0805,3.499966 1.67319,1.837606 z m -12.04792,0.06562 c 0.64784,-0.453759 0.79681,-1.65477 0.27054,-2.181039 -0.72809,-0.728089 -2.328331,0.0031 -2.328331,1.063818 0,1.379994 0.947895,1.894626 2.057791,1.117221 z m 4.00733,-0.2731 c 1.09933,-0.92503 1.1539,-2.448867 0.11691,-3.264568 -1.60062,-1.259046 -3.20419,-0.217076 -3.02436,1.965171 0.0403,0.489178 1.4759,1.984375 1.90526,1.984375 0.10348,0 0.55446,-0.30824 1.00219,-0.684978 z m -3.55158,-3.812939 c 0.0899,-0.14552 0.53626,-0.264583 0.99182,-0.264583 0.65891,0 1.08858,-0.28164 2.10105,-1.377195 0.70002,-0.757458 1.27276,-1.524337 1.27276,-1.704177 0,-0.83869 0.55224,-0.51464 1.05329,0.618056 0.75844,1.714595 1.19512,2.129777 2.46582,2.344462 0.59991,0.101353 1.30071,0.315405 1.55734,0.47567 0.34483,0.215352 0.54915,0.208834 0.78296,-0.02497 0.24543,-0.245434 -0.18638,-0.837877 -1.92588,-2.642336 -1.23323,-1.279283 -2.47395,-2.800811 -2.75716,-3.381174 -0.2832,-0.580364 -0.69133,-1.055206 -0.90694,-1.055206 -0.21561,0 -0.95642,0.832365 -1.64623,1.849699 -0.68982,1.017335 -1.98897,2.519178 -2.887,3.337429 -1.59722,1.45533 -1.828731,2.088914 -0.76329,2.088914 0.27387,0 0.57152,-0.119063 0.66146,-0.264584 z m 3.6399,-9.740014 c 0.52733,-0.527335 0.54063,-0.612643 0.15549,-0.997782 -0.33763,-0.337633 -0.72326,-0.383399 -1.94467,-0.230794 -1.78383,0.222875 -2.76999,0.94643 -2.20984,1.621375 0.52172,0.628631 3.24509,0.361132 3.99902,-0.392799 z m 6.54656,0.347306 c 0.43443,-0.523453 -0.0845,-1.190625 -0.92604,-1.190625 -0.32817,0 -0.74489,0.178594 -0.92604,0.396875 -0.43443,0.523453 0.0845,1.190625 0.92604,1.190625 0.32816,0 0.74488,-0.178594 0.92604,-0.396875 z m -3.32909,-0.215926 c 0.78746,-0.575807 0.43097,-1.371574 -0.61445,-1.371574 -1.07854,0 -1.63568,0.657638 -1.10195,1.300738 0.42338,0.510146 1.07863,0.537188 1.7164,0.07084 z m -3.24018,-3.264665 c 0.38851,-0.351594 0.48385,-0.837149 0.48385,-2.46404 0,-1.874866 -0.0554,-2.07928 -0.74255,-2.737574 -0.67409,-0.645815 -0.78998,-0.675553 -1.25678,-0.322499 -0.28281,0.213904 -0.70412,0.392703 -0.93622,0.397331 -0.23211,0.0046 -0.63781,0.246869 -0.90157,0.538313 -0.46317,0.511804 -0.46251,0.586338 0.0195,2.182812 0.74815,2.477911 2.14229,3.483925 3.33376,2.405657 z m 4.12103,-0.422013 c 0.47077,-0.487389 0.97512,-1.402956 1.16426,-2.113496 0.30541,-1.147327 0.28758,-1.315551 -0.21037,-1.984375 -0.70405,-0.945641 -1.72134,-1.314604 -2.56488,-0.930262 -1.23481,0.562618 -1.60195,4.219655 -0.54128,5.391678 0.64385,0.711448 1.20559,0.616563 2.15227,-0.363545 z m 5.83491,0.01323 c 0.75365,-0.753654 -0.0699,-2.201173 -0.87313,-1.534584 -0.21828,0.181158 -0.39687,0.529111 -0.39687,0.773231 0,0.432541 0.47551,1.078853 0.79375,1.078853 0.0873,0 0.30162,-0.142875 0.47625,-0.3175 z M 87.936679,58.806249 c 0.363802,-0.11651 1.018646,-0.221881 1.455208,-0.234158 0.60461,-0.017 0.69918,0.03879 0.396875,0.234158 -0.218281,0.141064 -0.873125,0.246435 -1.455208,0.234158 -0.918137,-0.01937 -0.970711,-0.05038 -0.396875,-0.234158 z m -7.672917,-0.762484 c -2.884139,-1.746263 -4.083123,-5.808958 -2.912218,-9.8679 0.411374,-1.426031 2.329199,-3.195517 4.051987,-3.738579 1.742577,-0.549299 2.363327,-0.559144 3.887315,-0.06166 0.654843,0.213766 1.488281,0.447375 1.852083,0.519131 1.141609,0.225168 4.497917,3.803892 4.497917,4.795984 0,0.294673 -0.239836,0.104678 -0.67229,-0.532579 -1.264215,-1.862925 -2.037432,-2.701407 -2.938741,-3.186794 -0.678823,-0.36557 -0.976591,-0.410419 -1.205448,-0.181562 -0.228857,0.228857 -0.187665,0.43241 0.166757,0.824043 0.258881,0.286059 0.413134,0.675826 0.342786,0.866147 -0.07979,0.215875 -0.227624,0.09656 -0.393005,-0.317196 -0.395213,-0.98876 -1.835393,-1.437801 -3.021671,-0.942142 -1.228271,0.513204 -2.791345,2.284094 -3.000605,3.399545 -0.268793,1.43279 0.278115,2.925801 1.464321,3.997467 0.580697,0.524625 1.055812,1.050845 1.055812,1.169378 0,0.118533 -0.366884,0.486764 -0.815297,0.81829 -0.7742,0.572391 -0.806291,0.66826 -0.636631,1.901841 0.212216,1.542994 0.03188,1.599153 -1.723072,0.536581 z m 50.361218,-0.490271 c 0.1463,-0.914937 0.0727,-1.126783 -0.6237,-1.793932 -0.43428,-0.416065 -0.7896,-0.861675 -0.7896,-0.990243 0,-0.128568 0.46777,-0.790901 1.03948,-1.471853 1.72855,-2.058811 1.7562,-3.79227 0.0899,-5.636632 -1.42546,-1.577819 -2.29529,-1.955694 -3.54921,-1.541863 -0.55712,0.183865 -1.22128,0.643174 -1.47591,1.020685 -0.79788,1.182911 -1.92512,3.519208 -1.92512,3.989954 0,0.247981 -0.23813,0.666374 -0.52917,0.929764 -0.29104,0.263389 -0.52917,0.691534 -0.52917,0.951433 0,0.2599 -0.13182,0.554013 -0.29293,0.653585 -0.36841,0.227692 -0.0582,-0.847877 0.46086,-1.597744 0.19868,-0.287041 0.36915,-0.763291 0.37882,-1.058333 0.0167,-0.508094 0.70334,-1.811032 2.03189,-3.855347 1.12306,-1.728122 0.12567,-2.08122 -1.71707,-0.607883 -0.82913,0.66291 -1.07792,0.784796 -0.72928,0.357279 1.03176,-1.265172 1.94803,-2.119032 2.27392,-2.119032 0.18164,0 0.55852,-0.206578 0.83751,-0.459061 0.35563,-0.32184 1.08134,-0.488051 2.4278,-0.556044 3.65405,-0.184521 6.22777,1.733242 7.19361,5.360183 0.45939,1.725127 0.45239,2.885496 -0.027,4.465359 -0.64344,2.120647 -1.70845,3.408613 -3.68164,4.452368 l -1.02995,0.544806 z M 94.286679,53.930903 c -1.335116,-1.303435 -2.118975,-2.412089 -2.101107,-2.97171 0.01462,-0.457914 0.03458,-0.456103 0.330729,0.03002 0.587187,0.963852 2.903315,3.319115 3.263966,3.319115 0.197173,0 0.358496,0.119062 0.358496,0.264583 0,0.558305 -0.965361,0.22367 -1.852084,-0.642012 z m -4.040408,-0.04701 c -0.106109,-0.106109 -0.192925,-0.375488 -0.192925,-0.59862 0,-0.297813 0.07827,-0.327422 0.294349,-0.111345 0.161892,0.161892 0.248708,0.431271 0.192925,0.59862 -0.05578,0.167349 -0.18824,0.217454 -0.294349,0.111345 z m 27.944189,-0.588585 c 0.24084,-0.26612 0.43789,-0.619118 0.43789,-0.784441 0,-0.165323 0.23812,-0.428027 0.52916,-0.583788 0.29104,-0.155761 0.52917,-0.510111 0.52917,-0.787444 0,-0.277334 0.11906,-0.577828 0.26458,-0.667764 0.14552,-0.08994 0.26459,0.01141 0.26459,0.225209 0,0.400457 -1.99779,3.082082 -2.29612,3.082082 -0.0919,0 0.0299,-0.217734 0.27073,-0.483854 z M 89.171401,51.750693 c -0.09701,-0.09701 -0.172768,-0.364905 -0.168343,-0.595313 0.0066,-0.344039 0.05824,-0.332609 0.288836,0.06394 0.284897,0.489926 0.202302,0.854166 -0.120493,0.531371 z m -1.11331,-2.487048 c -0.09592,-0.155202 -0.117655,-0.338931 -0.0483,-0.408285 0.06936,-0.06935 0.196603,0.05763 0.282774,0.282186 0.178907,0.466224 0.02642,0.548232 -0.234473,0.126099 z"
       id="path1"
       inkscape:label="path1" /></g></svg>
