<?xml version="1.0" encoding="UTF-8" standalone="no"?>
<!-- Created with Inkscape (http://www.inkscape.org/) -->

<svg
   width="289.85693mm"
   height="116.06218mm"
   viewBox="0 0 289.85693 116.06218"
   version="1.1"
   id="svg1"
   xml:space="preserve"
   xmlns="http://www.w3.org/2000/svg"
   xmlns:svg="http://www.w3.org/2000/svg"><defs
     id="defs1" /><g
     id="layer1"
     transform="translate(40.312991,-90.281965)"><path
       style="display:inline;fill:#000000"
       d="m 88.324072,205.86731 c -0.343062,-0.34306 -0.419239,-0.78861 -0.334687,-1.95752 0.117397,-1.62301 -0.490885,-0.44816 9.030676,-17.44208 7.134959,-12.73436 14.110339,-27.76291 17.069769,-36.77708 0.94653,-2.88304 2.13313,-7.73807 3.87995,-15.875 2.28199,-10.6298 4.78881,-19.99257 6.95339,-25.76155 1.31095,-3.49393 1.80341,-4.24412 3.05802,-4.35078 l 0.96591,-0.0821 v 1.59926 c 0,1.99929 -0.86013,6.09607 -2.91852,13.90098 -3.53383,13.39936 -4.8527,18.99831 -5.98544,25.40983 -0.69112,3.91185 -0.74778,4.74571 -0.7461,10.98021 0.002,7.12666 0.32828,10.11584 1.48268,13.58011 0.99066,2.97288 2.63644,4.67614 4.51832,4.67614 1.19186,0 3.63393,-1.23209 5.62673,-2.83883 1.88651,-1.52105 4.95111,-5.01759 6.18743,-7.05954 1.52298,-2.51538 1.65222,-3.19714 1.91042,-10.07767 0.27678,-7.37574 0.73679,-11.14228 1.84112,-15.07516 0.88441,-3.14966 1.60583,-4.75376 2.24893,-5.00054 0.23639,-0.0907 0.95044,-0.16492 1.58678,-0.16492 1.12569,0 1.16199,0.0266 1.34151,0.98352 0.2342,1.24836 -0.29431,9.21235 -0.82868,12.48725 -0.22351,1.36982 -0.76634,3.96218 -1.20628,5.76081 -0.86671,3.54337 -0.93556,5.53153 -0.20738,5.98793 0.6287,0.39405 1.97029,-0.23429 3.45747,-1.61931 1.39035,-1.29485 1.79252,-2.26456 2.46768,-5.95016 0.23435,-1.2793 0.59931,-2.74056 0.81102,-3.24724 0.7955,-1.90391 2.07716,-2.4681 3.31997,-1.46147 0.9436,0.76428 0.7742,2.20389 -0.80017,6.80021 -0.75334,2.19936 -1.44136,4.60374 -1.52892,5.34306 -0.14869,1.25543 -0.10346,1.39997 0.68476,2.18818 0.78561,0.78561 0.93895,0.83413 2.21792,0.70175 2.9146,-0.30167 8.09777,-2.55147 9.80014,-4.25385 1.12578,-1.12578 1.1493,-1.43942 0.2709,-3.61235 -0.41904,-1.03658 -0.48009,-1.99509 -0.47182,-7.40833 0.0109,-7.1176 0.33732,-9.75158 1.81047,-14.60773 1.82303,-6.0095 4.58292,-11.34465 6.98579,-13.50425 0.95004,-0.85385 1.28009,-0.99219 2.36724,-0.99219 0.70833,0 1.51839,0.17868 1.844,0.40675 1.38841,0.97248 1.92112,6.27128 1.4241,14.16531 -0.67962,10.79432 -2.34859,15.95332 -7.24525,22.39599 -2.73787,3.6023 -3.51808,5.0161 -3.28363,5.95021 0.39024,1.55485 3.4375,4.44928 5.99597,5.69526 2.82927,1.37787 6.8624,0.76857 12.56771,-1.89864 4.77707,-2.23325 12.41965,-6.88468 13.84948,-8.42907 l 0.62031,-0.67002 -0.62568,-0.40996 c -0.34412,-0.22548 -1.75436,-0.6651 -3.13385,-0.97693 -3.41213,-0.7713 -5.59574,-1.87749 -7.53526,-3.8173 -2.57406,-2.57443 -4.19614,-6.19861 -5.04415,-11.27003 -0.55823,-3.33849 -0.40849,-12.69072 0.26649,-16.64365 2.05783,-12.05145 8.32112,-24.593235 13.56227,-27.157492 2.65947,-1.301158 7.08615,-1.122382 10.05115,0.405926 0.5544,0.285762 1.3999,0.702763 1.87891,0.926669 1.51033,0.705989 4.01243,2.850589 5.25627,4.505257 2.70102,3.59315 3.27893,5.76513 3.45506,12.98526 0.18878,7.73851 -0.34394,11.20972 -3.1469,20.50521 -1.13048,3.749 -2.97326,8.73257 -3.87484,10.47899 -0.29257,0.56671 -1.08415,1.67279 -1.75908,2.45794 -0.70461,0.81969 -1.1282,1.5265 -0.99479,1.65991 0.37309,0.37309 4.40997,0.74469 8.13086,0.74846 4.48368,0.005 5.21279,0.21755 6.94033,2.02756 1.85345,1.94195 2.12534,2.89366 1.67676,5.86937 -0.65115,4.31954 -0.65276,4.7028 -0.0276,6.55362 1.07141,3.17186 -0.0454,5.56781 -2.89903,6.21952 -1.32575,0.30278 -2.86452,-0.16677 -3.23885,-0.98832 -0.32445,-0.7121 -0.2281,-1.18656 0.83985,-4.13565 0.486,-1.34204 1.37545,-5.73857 1.78283,-8.81241 0.12947,-0.9769 0.0584,-1.14555 -0.8013,-1.90034 -1.20338,-1.05658 -2.42287,-1.24309 -6.89245,-1.05413 -4.18141,0.17677 -7.57965,0.798 -9.05419,1.65517 -0.59967,0.3486 -2.36253,1.88615 -3.91748,3.41679 -4.03167,3.96866 -6.66707,5.90438 -11.0144,8.09018 -4.54396,2.28465 -9.20903,3.46376 -13.74521,3.47413 -2.41926,0.006 -3.38786,-0.10872 -4.71656,-0.55633 -2.64082,-0.88963 -3.63565,-1.69625 -4.99183,-4.04747 -1.93736,-3.35881 -2.43863,-3.46115 -6.95294,-1.41954 -4.47054,2.02183 -6.66946,2.44128 -8.5904,1.63866 -0.49216,-0.20564 -1.61839,-1.03907 -2.50274,-1.85208 -1.4884,-1.36833 -1.70284,-1.4782 -2.8851,-1.4782 -3.17444,0 -4.76894,1.08344 -6.66491,4.5287 -1.09076,1.98207 -5.36398,6.41178 -7.94541,8.23639 -3.02124,2.13547 -4.14951,2.58154 -6.5128,2.57494 -3.40268,-0.01 -5.34876,-1.28144 -6.95089,-4.54297 -1.11716,-2.27427 -1.61081,-4.87609 -1.85894,-9.79779 -0.15921,-3.15776 -0.31528,-4.32119 -0.64778,-4.82865 -0.53748,-0.82029 -0.71222,-0.8293 -1.42024,-0.0732 -0.70281,0.75053 -1.30366,2.17697 -2.53971,6.02949 -0.61789,1.92583 -2.18381,5.49115 -4.24156,9.65729 -2.92171,5.91531 -4.4586,8.7641 -11.199598,20.75957 -2.319514,4.12753 -4.158374,7.78214 -4.862196,9.66327 -0.778525,2.08079 -2.221388,2.86925 -3.291814,1.79883 z m 81.487808,-55.39888 c 0.92015,-0.84817 1.33042,-1.53039 1.94916,-3.24115 2.83094,-7.82737 5.4748,-22.96082 4.22897,-24.20665 -0.17462,-0.17463 -0.58221,-0.3175 -0.90574,-0.3175 -2.88413,0 -6.30174,9.40727 -7.64109,21.03275 -0.88283,7.66286 -0.33373,9.22356 2.3687,6.73255 z m 35.00062,-0.73737 c 1.41728,-0.729 1.63582,-1.07543 3.21411,-5.09504 2.56417,-6.53046 5.5327,-16.61106 6.88731,-23.3881 1.10157,-5.51112 0.9645,-10.24772 -0.41728,-14.41979 -1.87794,-5.67015 -5.09789,-8.522826 -10.60234,-9.39303 -6.8507,-1.083033 -14.71616,13.97228 -16.22703,31.06024 -0.64058,7.24491 0.50017,12.47334 3.77531,17.30347 1.55699,2.29623 3.85539,3.70616 7.22222,4.43039 1.83163,0.39399 4.896,0.14569 6.1477,-0.49814 z m -224.778821,15.56015 c -6.565972,-0.82791 -12.708789,-3.40031 -16.07875,-6.73321 -5.485468,-5.42516 -5.699921,-13.33123 -0.54639,-20.14332 4.27524,-5.65114 14.536918,-13.18644 27.1173684,-19.91267 C 5.7514089,110.36159 26.891778,102.34749 45.735637,97.572569 51.607168,96.084757 53.8215,95.57516 59.49397,94.406283 c 3.241458,-0.66794 13.855671,-2.283896 17.4625,-2.658571 1.455209,-0.151165 3.41974,-0.391405 4.365625,-0.533864 0.945886,-0.14246 4.602374,-0.442094 8.12553,-0.665854 6.533038,-0.414921 7.598201,-0.390106 17.248885,0.401859 3.66145,0.300469 4.78734,0.546153 6.04486,1.319062 0.69463,0.426945 0.85989,0.699357 0.85989,1.417442 0,1.37847 -0.72931,1.876507 -2.41957,1.652286 -0.75602,-0.10029 -2.01802,-0.34994 -2.80445,-0.554779 -3.64969,-0.950623 -18.052548,-1.174998 -24.673895,-0.384383 -1.236927,0.147695 -4.511146,0.509602 -7.276041,0.804239 -25.187878,2.68411 -55.097893,11.57509 -78.712732,23.39796 -16.714024,8.36795 -27.686631,16.20232 -32.25149,23.02735 -1.8998,2.84043 -2.500672,4.56179 -2.506463,7.18042 -0.0043,1.96437 0.08454,2.34227 0.974443,4.14286 1.310224,2.65106 3.132349,4.30047 6.631522,6.00294 1.575743,0.76666 3.983495,1.64721 5.852219,2.14026 10.901661,2.8763 26.1031613,-0.63715 27.6525681,-6.3912 0.420791,-1.5627 -0.1498317,-3.91022 -1.8710185,-7.69728 -2.03062842,-4.46792 -2.65478876,-6.43241 -2.80414191,-8.82578 -0.17600532,-2.82046 0.46191212,-4.17903 2.42259241,-5.15937 1.9208729,-0.96044 4.9634448,-0.94491 7.0114584,0.0358 1.8242155,0.87353 3.3473345,2.36776 3.6970815,3.62696 0.147795,0.5321 0.272201,2.99152 0.276459,5.46537 0.0043,2.47386 0.117882,5.92667 0.252499,7.67292 0.223815,2.90333 0.301299,3.22381 0.90555,3.74539 0.578247,0.49913 0.801598,0.53874 1.787999,0.31711 1.675787,-0.37652 4.161349,-1.7972 4.952069,-2.83045 1.214162,-1.58659 1.602861,-1.89351 2.398013,-1.89351 0.85034,0 0.937196,0.15546 1.224859,2.19237 0.09836,0.69648 0.388501,1.52526 0.644756,1.84172 l 0.465919,0.57538 1.553127,-1.15412 c 2.113751,-1.57071 11.14822,-10.65404 13.807255,-13.88192 3.121969,-3.78985 4.153305,-5.93343 8.540739,-17.75155 1.534724,-4.13398 4.84194,-12.00616 6.046181,-14.39174 0.591057,-1.17088 0.987115,-1.62626 1.600326,-1.84003 0.987467,-0.34423 2.003956,-0.0225 2.235689,0.70763 0.390368,1.22994 -1.229946,5.80633 -6.372972,17.99972 -4.529135,10.73794 -5.734196,14.90732 -5.746345,19.88171 -0.0089,3.66011 0.913184,5.70303 2.864941,6.34717 1.473729,0.48638 2.882811,-0.0583 4.751501,-1.83656 1.775531,-1.68964 2.575017,-2.1982 3.124339,-1.98741 0.200743,0.077 0.686621,0.84078 1.07973,1.6972 1.101481,2.39969 3.125638,3.79639 4.095837,2.82619 0.345854,-0.34585 0.464289,-1.27468 0.603207,-4.73066 0.177388,-4.413 0.497352,-5.96959 1.598904,-7.7785 0.643695,-1.05704 1.50642,-1.27347 2.882106,-0.72303 2.174925,0.87024 3.883518,4.12763 4.150667,7.91317 0.184357,2.61236 -0.125287,3.68636 -1.531106,5.31066 -1.068907,1.23502 -1.487845,2.23295 -1.160064,2.76331 0.306316,0.49563 1.878661,1.04638 2.987337,1.04638 1.34963,0 2.64125,0.46574 2.963982,1.06876 1.013209,1.8932 -1.157217,3.10733 -4.050964,2.26609 -0.794292,-0.2309 -2.024722,-0.83044 -2.73429,-1.3323 -2.278001,-1.61116 -3.318778,-2.05932 -5.375441,-2.31466 -1.097791,-0.13629 -2.711285,-0.55042 -3.585541,-0.92028 -3.010967,-1.27382 -3.234412,-1.2966 -5.42894,-0.5534 -3.909709,1.32407 -5.79148,1.19485 -7.501414,-0.51508 -1.65076,-1.65076 -2.559636,-3.85362 -2.813771,-6.81978 -0.120806,-1.41 -0.288792,-2.63278 -0.373302,-2.71729 -0.188561,-0.18856 -1.674642,1.1414 -7.80019,6.98078 -5.201504,4.9585 -7.179932,6.58821 -9.44334,7.77883 -2.091533,1.10021 -3.008975,1.04154 -4.313253,-0.27584 -1.360783,-1.37445 -1.945641,-1.35861 -4.886259,0.13232 -2.602583,1.31955 -3.020336,1.33362 -4.777852,0.16088 -2.158602,-1.44037 -2.121586,-1.28723 -2.297962,-9.50662 -0.1280947,-5.96941 -0.2402154,-7.54294 -0.6065656,-8.51268 -1.2016419,-3.18078 -4.6344214,-4.40854 -6.4137568,-2.29392 -0.590128,0.70133 -0.6623805,0.9775 -0.5225833,1.99743 0.089225,0.65096 0.8213573,2.66807 1.6269612,4.48246 1.8598453,4.18876 2.7533276,7.5718 2.950962,11.17339 0.1953193,3.55941 -0.1053938,4.28672 -2.4700291,5.97409 -2.791679,1.9921 -7.2941034,3.5831 -12.6640967,4.47505 -2.9839187,0.49563 -9.4332627,0.697 -11.9915407,0.37443 z m 88.449067,-17.00789 c 0.581858,-0.88802 0.885507,-2.85142 0.665345,-4.30213 -0.498683,-3.28595 -2.834674,-1.72535 -3.121791,2.08557 -0.100126,1.32898 -0.03389,1.62257 0.492425,2.18281 0.763473,0.81268 1.445962,0.82441 1.964021,0.0337 z m 174.036744,-16.5646 c -1.21051,-0.7618 -1.1857,-1.86353 0.0703,-3.11949 0.89977,-0.89976 0.98402,-0.9265 2.57969,-0.81879 2.75772,0.18615 4.69304,1.50226 4.33089,2.94519 -0.22565,0.89906 -1.32723,1.30494 -3.87197,1.42667 -1.92552,0.0921 -2.37263,0.0298 -3.10886,-0.43358 z"
       id="path1" /></g></svg>
